<?xml version="1.0" standalone="no"?>
<!DOCTYPE svg PUBLIC "-//W3C//DTD SVG 1.1//EN" "http://www.w3.org/Graphics/SVG/1.1/DTD/svg11.dtd" >
<svg xmlns:xlink="http://www.w3.org/1999/xlink" xmlns="http://www.w3.org/2000/svg" version="1.1">
  <metadata>
    Created by FontForge 20170731 at Tue Mar 10 18:16:53 2015
    By Aleksey,,,
    (c)1992 FontShop International GmbH
  </metadata>
  <defs>
    <font id="WagamamaNormal" horiz-adv-x="1155">
      <font-face
        font-family="Wagamama"
        font-weight="400"
        font-stretch="normal"
        units-per-em="2048"
        panose-1="0 0 4 0 0 0 0 0 0 0"
        ascent="1638"
        descent="-410"
        x-height="1073"
        cap-height="1071"
        bbox="-129 -463 1858.45 1630"
        underline-thickness="0"
        underline-position="0"
        unicode-range="U+000D-25FC"
      />
      <missing-glyph horiz-adv-x="748"
                     d="M68 0v1365h544v-1365h-544zM136 68h408v1229h-408v-1229z"/>
      <glyph glyph-name=".notdef" horiz-adv-x="748"
             d="M68 0v1365h544v-1365h-544zM136 68h408v1229h-408v-1229z"/>
      <glyph glyph-name="glyph1" horiz-adv-x="0"
      />
      <glyph glyph-name="uni000D" unicode="&#xd;" horiz-adv-x="540"
      />
      <glyph glyph-name="space" unicode=" " horiz-adv-x="540"
      />
      <glyph glyph-name="exclam" unicode="!" horiz-adv-x="428"
             d="M172 731v340h160v-340l-41 -469h-78zM174 0v160h154v-160h-154z"/>
      <glyph glyph-name="quotedbl" unicode="&#x22;" horiz-adv-x="761"
             d="M74 1468h192l-30 -589h-130zM420 1468h196l-32 -589h-129z"/>
      <glyph glyph-name="numbersign" unicode="#" horiz-adv-x="831"
             d="M0 319l25 91h165l68 245h-166l23 90h166l88 322h112l-86 -322h156l88 322h111l-86 -322h165l-24 -90h-166l-68 -245h168l-24 -91h-164l-88 -319h-115l86 319h-153l-88 -319h-113l86 319h-166zM305 410h154l67 245h-155z"/>
      <glyph glyph-name="dollar" unicode="$" horiz-adv-x="831"
             d="M47 317h139q4 -104 37 -155q43 -63 152 -76v387q-152 33 -221 90q-86 72 -86 205q0 109 63 186q82 102 246 107v98h69v-96q297 -18 306 -289h-136q-14 162 -170 170v-344q178 -51 244 -100q86 -66 86 -195q0 -299 -330 -336v-143h-69v143q-330 20 -330 348zM207 780
q0 -127 168 -166v332q-168 -8 -168 -166zM446 86q188 8 189 184q0 61 -29 97q-43 51 -160 88v-369z"/>
      <glyph glyph-name="percent" unicode="%" horiz-adv-x="1329"
             d="M49 762q0 109 76 183.5t182 74.5t181 -76t75 -182t-74.5 -181t-181.5 -75q-106 0 -182 74.5t-76 181.5zM152 762q0 -63 46 -108.5t109 -45.5t109.5 45t46.5 109q0 63 -46.5 109.5t-109.5 46.5t-109 -45.5t-46 -110.5zM330 -29l583 1069h80l-583 -1069h-80zM762 256
q0 106 76 181t182 75t181 -75t75 -181t-75 -182t-181 -76t-182 76t-76 182zM864 256q0 -63 45 -108.5t111 -45.5q63 0 109.5 45.5t46.5 108.5t-46.5 109.5t-109.5 46.5t-109.5 -46.5t-46.5 -109.5z"/>
      <glyph glyph-name="ampersand" unicode="&#x26;" horiz-adv-x="1009"
             d="M68 270q0 106 55 179q49 66 184 147q-110 129 -110 233q0 106 71.5 174t188.5 68q102 0 171.5 -58.5t69.5 -160.5q0 -76 -28 -127q-41 -74 -162 -154l190 -227q31 72 45 168h134q-18 -160 -93 -281l193 -231h-182l-97 119q-63 -66 -106 -92q-86 -51 -201 -52
q-170 0 -256 103q-68 80 -67 192zM211 270q0 -74 54 -123t136 -49q135 0 222 115l-238 289q-92 -61 -127 -103q-47 -57 -47 -129zM334 844q0 -68 100 -182q133 82 133 182q0 39 -22 69q-29 41 -88 41q-123 1 -123 -110z"/>
      <glyph glyph-name="quotesingle" unicode="'" horiz-adv-x="405"
             d="M147 1468h195l-35 -589h-125z"/>
      <glyph glyph-name="parenleft" unicode="(" horiz-adv-x="681"
             d="M135 526q0 250 64 437q72 211 278 530h129q-150 -291 -192 -414q-80 -236 -80 -540q0 -250 51 -437q57 -207 223 -520h-127q-346 487 -346 944z"/>
      <glyph glyph-name="parenright" unicode=")" horiz-adv-x="681"
             d="M61 1493h136q182 -289 243 -430q102 -242 103 -512q0 -268 -76 -477q-72 -195 -266 -492h-138q162 311 203 438q72 215 72 519q0 272 -68 491q-57 184 -209 463z"/>
      <glyph glyph-name="asterisk" unicode="*" horiz-adv-x="796"
             d="M74 1204l41 117l215 -78v227h125v-225l215 76l43 -117l-219 -69l135 -191l-103 -74l-131 193l-135 -193l-104 74l137 191z"/>
      <glyph glyph-name="plus" unicode="+" horiz-adv-x="872"
             d="M66 317v134h315v315h133v-315h315v-134h-315v-317h-133v317h-315z"/>
      <glyph glyph-name="comma" unicode="," horiz-adv-x="569"
             d="M162 0v229h229v-209q0 -297 -229 -329v96q117 23 119 213h-119z"/>
      <glyph glyph-name="hyphen" unicode="-" horiz-adv-x="681"
             d="M80 471v199h512v-199h-512z"/>
      <glyph glyph-name="period" unicode="." horiz-adv-x="569"
             d="M168 0v229h223v-229h-223z"/>
      <glyph glyph-name="slash" unicode="/" horiz-adv-x="415"
             d="M-12 0l352 1077h119l-350 -1077h-121z"/>
      <glyph glyph-name="zero" unicode="0" horiz-adv-x="849"
             d="M47 516q0 270 96.5 413.5t272.5 143.5q373 0 372 -538q0 -287 -106 -433q-98 -131 -268 -131q-367 0 -367 545zM203 510q0 -410 211 -410q219 0 219 430q0 231 -55 330q-49 84 -156 84q-219 0 -219 -434z"/>
      <glyph glyph-name="one" unicode="1" horiz-adv-x="849"
             d="M141 756v110q147 10 199 41q63 39 92 160h115v-1067h-154v756h-252z"/>
      <glyph glyph-name="two" unicode="2" horiz-adv-x="849"
             d="M47 0q6 147 55 238q57 109 197 190l137 80q98 57 139 102q53 59 54 138q0 82 -45 135q-53 61 -152 61q-205 0 -213 -252h-147q6 383 360 383q156 0 252 -82q104 -86 104 -241q0 -106 -55 -183q-63 -82 -217 -168l-100 -55q-166 -92 -201 -211h567v-135h-735z"/>
      <glyph glyph-name="three" unicode="3" horiz-adv-x="849"
             d="M37 330h151q8 -115 54 -168q51 -61 166 -62q92 0 156.5 51.5t64.5 147.5q0 88 -39 131q-55 63 -211 64q-35 0 -49 -2v122q18 -2 57 -2q209 0 209 168q0 68 -41 111q-49 53 -141 53q-199 0 -209 -221h-142q0 152 74 244q88 106 264 106q162 0 253 -72.5t91 -212.5
q0 -156 -137 -219q176 -57 176 -252q0 -147 -92 -239q-102 -106 -293 -107q-182 0 -276 105q-84 94 -86 254z"/>
      <glyph glyph-name="four" unicode="4" horiz-adv-x="849"
             d="M39 256v139l477 678h131v-690h154v-127h-154v-256h-145v256h-463zM166 383h336v479z"/>
      <glyph glyph-name="five" unicode="5" horiz-adv-x="849"
             d="M47 274h152q18 -174 209 -174q98 0 160.5 61.5t62.5 174.5q0 102 -61.5 165.5t-161.5 63.5q-125 0 -195 -96l-125 6l78 580h563v-137h-455l-43 -289q86 66 207 65q141 0 240 -88q109 -96 108 -250q0 -170 -100 -274q-106 -109 -291 -109q-137 0 -231 72q-104 82 -117 229
z"/>
      <glyph glyph-name="six" unicode="6" horiz-adv-x="849"
             d="M57 473q0 604 387 604q166 0 250 -92q70 -74 74 -192h-143q-29 160 -176 159q-223 0 -246 -391q92 127 254 127q133 0 223 -76q113 -92 113 -268q0 -141 -80 -244q-98 -127 -287 -127q-158 0 -252 107q-117 127 -117 393zM221 334q0 -94 45 -156q55 -78 170 -78
q88 0 145.5 58.5t57.5 173.5q0 227 -209 227q-92 0 -150.5 -59.5t-58.5 -165.5z"/>
      <glyph glyph-name="seven" unicode="7" horiz-adv-x="849"
             d="M53 909l2 146h746v-125q-135 -131 -258 -381q-137 -274 -178 -549h-160q35 217 135 444q117 260 297 465h-584z"/>
      <glyph glyph-name="eight" unicode="8" horiz-adv-x="849"
             d="M47 299q0 193 180 272q-141 68 -141 213q0 115 74 195q88 94 260 94q133 0 223 -61q106 -74 107 -211q0 -150 -138 -228q76 -37 111 -77q61 -72 63 -191q2 -143 -94 -235q-102 -100 -272 -101q-158 0 -258 80q-115 88 -115 250zM205 299q0 -74 41 -127q55 -72 176 -72
q211 0 211 195q0 94 -57.5 150.5t-161.5 56.5q-80 0 -135 -39q-74 -53 -74 -164zM236 782q0 -61 40 -106q49 -51 140 -51q78 0 130 41t52 122q0 55 -33 99q-47 59 -151 59q-178 0 -178 -164z"/>
      <glyph glyph-name="nine" unicode="9" horiz-adv-x="849"
             d="M53 705q0 145 78 245q96 123 275 123q375 0 374 -506q0 -260 -90 -417q-102 -180 -301 -181q-150 0 -234.5 80t-86.5 207h147q10 -164 170 -164q92 0 145 64q76 90 105 325q-86 -121 -248 -121q-133 0 -225 76q-109 93 -109 269zM203 709q0 -221 205 -222q207 0 206 228
q0 111 -56 170t-148 59t-149.5 -63t-57.5 -172z"/>
      <glyph glyph-name="colon" unicode=":" horiz-adv-x="585"
             d="M227 0v229h224v-229h-224zM227 827v228h224v-228h-224z"/>
      <glyph glyph-name="semicolon" unicode=";" horiz-adv-x="585"
             d="M225 0v229h230v-209q0 -297 -230 -329v96q117 23 119 213h-119zM227 827v228h226v-228h-226z"/>
      <glyph glyph-name="less" unicode="&#x3c;" horiz-adv-x="872"
             d="M20 317v132l852 335v-143l-684 -258l684 -256v-141z"/>
      <glyph glyph-name="equal" unicode="=" horiz-adv-x="1196"
             d="M90 215v184h1047v-184h-1047zM90 651v183h1047v-183h-1047z"/>
      <glyph glyph-name="greater" unicode="&#x3e;" horiz-adv-x="872"
             d="M20 -14v141l687 256l-687 258v143l852 -335v-132z"/>
      <glyph glyph-name="question" unicode="?" horiz-adv-x="843"
             d="M111 737q0 158 89 254t246 96q141 0 233.5 -80.5t92.5 -215.5q0 -68 -23.5 -110t-103.5 -124l-76 -78q-68 -70 -67 -198h-140q0 106 27 168q27 55 107 139l55 57q72 74 72 146q0 172 -179 172q-182 0 -192 -226h-141zM360 0v160h154v-160h-154z"/>
      <glyph glyph-name="at" unicode="@" horiz-adv-x="1509"
             d="M162 514q0 244 168 412q180 178 471 178q248 0 397.5 -123t149.5 -332q0 -160 -96.5 -281.5t-229.5 -121.5q-139 0 -139 119q0 23 4 32q-72 -152 -219 -151q-86 0 -143.5 65.5t-57.5 167.5q0 129 84 244q90 123 217 123q68 0 117 -37t55 -104l37 116h110l-96 -319
q-20 -68 -20 -96q0 -63 63 -64q82 0 147.5 88t65.5 225q0 168 -123 267q-117 92 -311 92q-260 0 -410 -148q-139 -137 -139 -356q0 -186 123 -311q139 -141 395 -142q229 0 416 140l49 -66q-193 -162 -481 -162q-268 0 -436 151.5t-168 393.5zM592 475q0 -141 108 -141
q90 0 152 121q53 100 53 198q0 39 -24 72q-31 41 -86 41q-80 0 -141.5 -95.5t-61.5 -195.5z"/>
      <glyph glyph-name="A" unicode="A" horiz-adv-x="1009"
             d="M25 0l401 1071h176l387 -1071h-172l-100 307h-420l-111 -307h-161zM340 434h328l-162 467z"/>
      <glyph glyph-name="B" unicode="B" horiz-adv-x="1009"
             d="M113 0v1071h446q338 0 338 -266q0 -154 -141 -227q190 -70 190 -265q0 -139 -98 -225q-104 -88 -279 -88h-456zM262 133h307q221 0 222 191q0 172 -242 172h-287v-363zM262 623h266q213 0 213 163q0 156 -215 156h-264v-319z"/>
      <glyph glyph-name="C" unicode="C" horiz-adv-x="1079"
             d="M66 545q0 244 131 395q135 160 370 160q182 0 305.5 -95.5t137.5 -259.5h-154q-55 219 -291 220q-158 0 -246 -107q-94 -115 -94 -336q0 -207 99 -315q88 -98 239 -98q244 0 301 282h154q-18 -186 -144 -303t-323 -117q-217 0 -346 144q-139 152 -139 430z"/>
      <glyph glyph-name="D" unicode="D" horiz-adv-x="1079"
             d="M119 0v1071h436q207 0 328 -131q127 -139 127 -385q0 -254 -121 -404.5t-332 -150.5h-438zM274 133h254q150 0 236 102.5t86 294.5q0 410 -324 410h-252v-807z"/>
      <glyph glyph-name="E" unicode="E" horiz-adv-x="997"
             d="M125 0v1071h784v-137h-628v-311h579v-134h-579v-354h641v-135h-797z"/>
      <glyph glyph-name="F" unicode="F" horiz-adv-x="913"
             d="M125 0v1071h747v-137h-589v-316h518v-135h-518v-483h-158z"/>
      <glyph glyph-name="G" unicode="G" horiz-adv-x="1163"
             d="M70 522q0 256 139 417t371 161q401 0 458 -355h-155q-47 219 -308 220q-154 0 -245 -111q-98 -117 -99 -326q0 -424 349 -424q319 0 329 342h-323v127h469v-573h-103l-32 137q-78 -86 -146 -121q-88 -45 -223 -45q-213 0 -342 138q-139 145 -139 413z"/>
      <glyph glyph-name="H" unicode="H" horiz-adv-x="1079"
             d="M117 0v1071h157v-436h539v436h158v-1071h-158v498h-539v-498h-157z"/>
      <glyph glyph-name="I" unicode="I" horiz-adv-x="415"
             d="M139 0v1071h158v-1071h-158z"/>
      <glyph glyph-name="J" unicode="J" horiz-adv-x="759"
             d="M27 285v69h147v-69q0 -182 156 -183q94 0 130 51.5t36 198.5v719h155v-749q0 -350 -325 -351q-299 0 -299 314z"/>
      <glyph glyph-name="K" unicode="K" horiz-adv-x="1009"
             d="M113 0v1071h155v-510l508 510h213l-446 -432l458 -639h-200l-371 528l-162 -155v-373h-155z"/>
      <glyph glyph-name="L" unicode="L" horiz-adv-x="843"
             d="M113 0v1071h157v-936h541v-135h-698z"/>
      <glyph glyph-name="M" unicode="M" horiz-adv-x="1245"
             d="M111 0v1071h225l293 -897l289 897h221v-1071h-148v645q0 45 2 129v131l-291 -905h-153l-293 905q0 -55 2 -140t2 -120v-645h-149z"/>
      <glyph glyph-name="N" unicode="N" horiz-adv-x="1079"
             d="M113 0v1071h182l524 -852v852h150v-1071h-172l-535 854v-854h-149z"/>
      <glyph glyph-name="O" unicode="O" horiz-adv-x="1163"
             d="M59 532q0 268 150 424q141 147 371 148q236 0 372 -129q152 -143 152 -422q0 -262 -141.5 -423t-384.5 -161q-233 0 -373 144q-146 151 -146 419zM221 524q0 -203 97.5 -309t273.5 -106q162 0 257 113.5t95 328.5q0 197 -104 309q-98 104 -254 105q-166 0 -265.5 -116
t-99.5 -325z"/>
      <glyph glyph-name="P" unicode="P" horiz-adv-x="997"
             d="M125 0v1071h481q150 0 237 -80t87 -229q0 -145 -85 -231.5t-241 -86.5h-321v-444h-158zM283 575h278q211 0 211 185q0 180 -211 180h-278v-365z"/>
      <glyph glyph-name="Q" unicode="Q" horiz-adv-x="1163"
             d="M59 532q0 262 142.5 417t378.5 155q231 0 372 -133q152 -145 152 -416q0 -285 -150 -430l144 -117l-80 -92l-160 125q-129 -72 -283 -72q-227 0 -364 135q-152 147 -152 428zM221 524q0 -195 96.5 -305t274.5 -110q102 0 149 28l-116 94l80 95l135 -109q104 125 104 334
q0 197 -102 309q-98 104 -256 105q-166 0 -260 -103q-105 -113 -105 -338z"/>
      <glyph glyph-name="R" unicode="R" horiz-adv-x="1079"
             d="M131 0v1071h500q352 0 352 -289q0 -182 -154 -256q74 -31 100.5 -77t31.5 -134l6 -133q6 -133 37 -182h-170q-12 31 -19 125l-10 166q-6 90 -51 127t-152 37h-317v-455h-154zM285 584h325q215 0 215 182q0 174 -198 174h-342v-356z"/>
      <glyph glyph-name="S" unicode="S" horiz-adv-x="997"
             d="M70 344h149q12 -244 287 -244q129 0 200.5 48.5t71.5 132.5q0 76 -45 113.5t-178 66.5l-149 33q-160 35 -232 96t-72 180q0 141 97 231q106 98 293 99q180 0 286 -82q119 -92 119 -260h-147q-12 100 -62 147q-63 61 -203 62q-117 0 -175 -49.5t-58 -124.5q0 -74 53 -107
q43 -27 197 -61l155 -35q272 -61 273 -289q0 -150 -107 -238q-115 -94 -323 -94q-201 0 -315.5 99.5t-114.5 275.5z"/>
      <glyph glyph-name="T" unicode="T" horiz-adv-x="913"
             d="M25 936v135h870v-135h-356v-936h-160v936h-354z"/>
      <glyph glyph-name="U" unicode="U" horiz-adv-x="1079"
             d="M123 438v633h160v-661q0 -301 252 -301q276 0 276 301v661h160v-633q0 -467 -426 -467q-422 0 -422 467z"/>
      <glyph glyph-name="V" unicode="V" horiz-adv-x="997"
             d="M37 1071h172l297 -899l295 899h172l-385 -1071h-164z"/>
      <glyph glyph-name="W" unicode="W" horiz-adv-x="1411"
             d="M27 1071h170l196 -858l49 180l181 678h170l229 -858l37 158l162 700h170l-285 -1071h-162l-235 883l-41 -154l-197 -729h-160z"/>
      <glyph glyph-name="X" unicode="X" horiz-adv-x="997"
             d="M31 0l377 551l-355 520h193l262 -399l262 399h184l-354 -520l373 -551h-193l-278 430l-285 -430h-186z"/>
      <glyph glyph-name="Y" unicode="Y" horiz-adv-x="997"
             d="M31 1071h182l297 -506l295 506h182l-399 -643v-428h-158v428z"/>
      <glyph glyph-name="Z" unicode="Z" horiz-adv-x="913"
             d="M35 0v131l643 805h-600v135h801v-131l-648 -805h648v-135h-844z"/>
      <glyph glyph-name="bracketleft" unicode="[" horiz-adv-x="585"
             d="M129 -401v1882h399v-158h-215v-1569h215v-155h-399z"/>
      <glyph glyph-name="backslash" unicode="\" horiz-adv-x="415"
             d="M-55 1077h123l417 -1077h-123z"/>
      <glyph glyph-name="bracketright" unicode="]" horiz-adv-x="585"
             d="M47 -246h215v1571h-215v156h399v-1882h-399v155z"/>
      <glyph glyph-name="asciicircum" unicode="^" horiz-adv-x="993"
             d="M123 604l354 864h162l356 -864h-176l-260 647l-260 -647h-176z"/>
      <glyph glyph-name="underscore" unicode="_" horiz-adv-x="1138"
             d="M0 -156h1139v-100h-1139v100z"/>
      <glyph glyph-name="grave" unicode="`" horiz-adv-x="681"
             d="M-55 1505h237l183 -288h-146z"/>
      <glyph glyph-name="a" unicode="a"
             d="M57 512q0 258 126 420t335 162q195 0 324 -166v145h180v-1073h-178v150q-129 -188 -344 -189q-172 0 -297 137q-146 154 -146 414zM262 524q0 -197 84 -299q78 -94 213 -94q123 0 199 96q82 106 82 308q0 184 -76 286.5t-207 102.5q-135 0 -215 -106t-80 -294z"/>
      <glyph glyph-name="b" unicode="b"
             d="M119 0v1475h190v-533q121 160 320 160q197 0 317 -133q131 -145 131 -414q0 -283 -135 -442q-125 -147 -326 -148q-92 0 -155 31q-82 39 -160 141v-137h-182zM299 545q0 -408 295 -408q154 0 225 133q57 106 58 275q0 197 -82 295q-74 88 -197 88q-299 0 -299 -383z"/>
      <glyph glyph-name="c" unicode="c" horiz-adv-x="1040"
             d="M61 508q0 264 131.5 430t358.5 166q395 0 440 -395h-192q-35 223 -248 223q-283 0 -283 -424q0 -158 56 -254q70 -121 217 -121q209 0 258 248h192q-57 -414 -465 -414q-193 0 -319 129q-146 146 -146 412z"/>
      <glyph glyph-name="d" unicode="d"
             d="M57 512q0 258 126 420t335 162q106 0 176 -36t137 -122v539h191v-1475h-178v150q-129 -188 -344 -189q-172 0 -297 137q-146 154 -146 414zM262 524q0 -197 84 -299q78 -94 213 -94q123 0 199 96q82 106 82 308q0 184 -76 286.5t-207 102.5q-135 0 -215 -106t-80 -294z
"/>
      <glyph glyph-name="e" unicode="e" horiz-adv-x="1138"
             d="M68 516q0 258 137 421t370 163q227 0 355 -156q125 -155 125 -435v-34h-781q12 -346 293 -346q236 0 281 205h192q-23 -178 -149.5 -275.5t-308.5 -97.5q-221 0 -361 135q-153 148 -153 420zM281 625h573q-25 305 -287 305q-109 0 -188 -72q-92 -81 -98 -233z"/>
      <glyph glyph-name="f" unicode="f" horiz-adv-x="585"
             d="M27 918v151h149v154q0 139 67.5 203.5t225.5 64.5q31 0 80 -4v-174q-20 2 -66 2q-66 0 -89 -27.5t-23 -109.5v-109h180v-151h-180v-918h-195v918h-149z"/>
      <glyph glyph-name="g" unicode="g"
             d="M61 522q0 262 134 422q125 150 317 150q201 0 324 -166v137h180v-983q0 -258 -103 -385q-119 -150 -389 -150q-401 0 -430 322h201q25 -162 235 -162q174 0 236.5 88t62.5 318v39q-57 -82 -120 -117q-80 -45 -209 -45q-176 0 -289 104q-150 137 -150 428zM262 510
q0 -160 62 -254q70 -109 204 -109q137 0 217 97q88 102 89 299q0 186 -80 286q-74 94 -203 95q-289 0 -289 -414z"/>
      <glyph glyph-name="h" unicode="h"
             d="M131 0v1475h195v-545q135 170 329 170q367 0 367 -412v-688h-201v674q0 141 -55 200q-47 53 -154 54q-119 0 -198 -78q-88 -84 -88 -229v-621h-195z"/>
      <glyph glyph-name="i" unicode="i" horiz-adv-x="471"
             d="M131 0v1071h201v-1071h-201zM131 1260v210h201v-210h-201z"/>
      <glyph glyph-name="j" unicode="j" horiz-adv-x="471"
             d="M-33 -262q14 -2 37 -2q129 0 129 129v1204h195v-1223q0 -145 -56 -208q-63 -72 -227 -72q-37 0 -78 6v166zM133 1253v215h195v-215h-195z"/>
      <glyph glyph-name="k" unicode="k" horiz-adv-x="1040"
             d="M129 0v1468h186v-843l449 448h248l-408 -403l428 -670h-246l-323 530l-148 -137v-393h-186z"/>
      <glyph glyph-name="l" unicode="l" horiz-adv-x="542"
             d="M137 213v1255h195v-1232q0 -88 112 -89q45 0 62 3v-152q-72 -14 -135 -14q-125 0 -179.5 54t-54.5 175z"/>
      <glyph glyph-name="m" unicode="m" horiz-adv-x="1722"
             d="M131 0v1073h193v-151q135 176 317 176q203 0 287 -172q117 172 325 172q336 0 336 -383v-715h-200v715q0 209 -183 209q-100 0 -168 -64q-80 -76 -80 -215v-645h-198v692q0 233 -174 234q-102 0 -174 -66q-86 -80 -86 -229v-631h-195z"/>
      <glyph glyph-name="n" unicode="n"
             d="M131 0v1073h186v-151q135 176 349 176q356 0 356 -406v-692h-199v674q0 252 -200 252q-123 0 -207 -76q-90 -84 -90 -223v-627h-195z"/>
      <glyph glyph-name="o" unicode="o"
             d="M59 516q0 258 131 418q139 172 381 172q213 0 351 -133q151 -146 151 -414q0 -264 -117 -420q-135 -178 -403 -178q-211 0 -342 131q-152 148 -152 424zM260 518q0 -389 305 -389t305 422q0 385 -303 385q-139 0 -219 -96q-88 -109 -88 -322z"/>
      <glyph glyph-name="p" unicode="p"
             d="M119 -426v1497h188v-147q127 176 332 176q188 0 309 -139q129 -150 129 -402q0 -281 -121.5 -438.5t-332.5 -157.5q-186 0 -310 160v-549h-194zM305 502q0 -369 287 -369q115 0 188 80q98 104 99 330q0 186 -75 285.5t-212 99.5q-131 0 -205 -103q-82 -110 -82 -323z"/>
      <glyph glyph-name="q" unicode="q"
             d="M59 510q0 256 129 423t328 167q207 0 320 -178v151h186v-1499h-197v551q-94 -160 -321 -160q-182 0 -305 133q-140 150 -140 412zM262 522q0 -186 74 -287.5t207 -101.5q291 0 291 412q0 381 -293 381q-123 0 -199 -101q-80 -108 -80 -303z"/>
      <glyph glyph-name="r" unicode="r" horiz-adv-x="698"
             d="M135 0v1073h184v-184q121 209 299 209q39 0 54 -4v-205q-33 6 -62 6q-119 0 -196 -74q-82 -80 -82 -219v-602h-197z"/>
      <glyph glyph-name="s" unicode="s" horiz-adv-x="1040"
             d="M66 338h190q16 -217 274 -217q111 0 176.5 45t65.5 123q0 57 -40 88t-167 61l-147 37q-168 41 -242 105q-80 67 -80 180q0 160 121 254q113 88 291 88q197 0 307.5 -91t114.5 -247h-187q-6 174 -247 174q-203 0 -203 -135q0 -102 184 -148l127 -30q209 -51 286 -118
t77 -196q0 -156 -113 -250q-121 -102 -334 -102q-436 0 -454 379z"/>
      <glyph glyph-name="t" unicode="t" horiz-adv-x="585"
             d="M23 918v155h145v299h197v-299h172v-155h-172v-682q0 -88 110 -89q45 0 62 3v-152q-72 -14 -136 -14q-125 0 -179 54t-54 175v705h-145z"/>
      <glyph glyph-name="u" unicode="u"
             d="M129 348v725h197v-702q0 -229 200 -230q125 0 206 84t81 215v633h193v-1073h-181l-2 158q-111 -186 -336 -187q-358 0 -358 377z"/>
      <glyph glyph-name="v" unicode="v" horiz-adv-x="1040"
             d="M12 1073h226l278 -862l289 862h211l-402 -1073h-206z"/>
      <glyph glyph-name="w" unicode="w" horiz-adv-x="1495"
             d="M18 1073h211l203 -835l201 835h213l205 -831l213 831h196l-313 -1073h-203l-211 825l-205 -825h-202z"/>
      <glyph glyph-name="x" unicode="x" horiz-adv-x="1040"
             d="M12 0l377 549l-356 524h248l237 -368l240 368h237l-362 -522l377 -551h-248l-256 391l-248 -391h-246z"/>
      <glyph glyph-name="y" unicode="y" horiz-adv-x="1040"
             d="M20 1073h222l278 -862l281 862h213l-418 -1153q-80 -219 -147.5 -288.5t-210.5 -69.5q-49 0 -111 10v176q59 -18 100 -18q63 0 99 34q27 29 53 99l39 102z"/>
      <glyph glyph-name="z" unicode="z" horiz-adv-x="1024"
             d="M49 0v152l625 749h-580v172h840v-160l-621 -741h639v-172h-903z"/>
      <glyph glyph-name="braceleft" unicode="{" horiz-adv-x="700"
             d="M-37 483v115q131 16 191 76q74 72 73 227v178q0 199 82 291q94 109 332 125v-121q-238 -23 -238 -317v-129q0 -197 -77 -289q-66 -76 -211 -98q143 -23 211 -103q78 -92 77 -284v-164q0 -250 238 -285v-123q-414 37 -414 381v219q0 266 -264 301z"/>
      <glyph glyph-name="bar" unicode="|" horiz-adv-x="393"
             d="M100 0v1087h136v-1087h-136z"/>
      <glyph glyph-name="braceright" unicode="}" horiz-adv-x="700"
             d="M43 -295q236 29 236 285v164q0 162 45 243q63 121 241 144q-139 18 -205 94q-82 92 -81 293v129q0 147 -46 217q-55 86 -190 100v121q217 -16 314.5 -112.5t97.5 -303.5v-178q0 -133 49 -201q59 -82 215 -102v-115q-264 -33 -264 -301v-219q0 -342 -412 -381v123z"/>
      <glyph glyph-name="asciitilde" unicode="~" horiz-adv-x="1196"
             d="M16 317q68 383 316 383q78 0 170 -34l225 -86q113 -43 170 -43q68 0 119 52t69 144h125q-74 -389 -323 -389q-57 0 -211 57l-207 78q-82 31 -143 31q-66 0 -105 -37q-43 -43 -80 -156h-125z"/>
      <glyph glyph-name="uni00A0" unicode="&#xa0;" horiz-adv-x="1024"
      />
      <glyph glyph-name="exclamdown" unicode="&#xa1;" horiz-adv-x="681"
             d="M231 72l56 643h108l56 -643v-469h-220v469zM231 854v219h218v-219h-218z"/>
      <glyph glyph-name="cent" unicode="&#xa2;" horiz-adv-x="1138"
             d="M100 522q0 258 129 416q135 166 371 166q53 0 94 -10l54 184h83l-55 -203q240 -96 271 -370h-185q-20 154 -135 194l-213 -762q41 -12 76 -12q94 0 149 41q80 57 125 211h191q-86 -420 -484 -420q-63 0 -106 14l-64 -211h-88l70 236q-283 131 -283 526zM297 524
q0 -248 137 -352l213 754q-31 6 -63 6q-121 0 -204 -113t-83 -295z"/>
      <glyph glyph-name="sterling" unicode="&#xa3;" horiz-adv-x="831"
             d="M41 473v78h111q-72 121 -72 227q0 119 90 203q100 90 268 90q330 0 334 -342h-143q0 217 -201 219q-86 0 -139 -43q-59 -49 -60 -133q0 -55 84 -221h236v-78h-203q12 -78 12 -90q0 -139 -176 -281q111 55 191 56q43 0 125 -24.5t118 -24.5q57 0 123 47l60 -109
q-100 -74 -193 -74q-45 0 -148.5 34t-158.5 34q-57 0 -109 -23q-33 -18 -67 -36l-76 110q182 121 182 270q0 47 -30 111h-158z"/>
      <glyph glyph-name="yen" unicode="&#xa5;" horiz-adv-x="831"
             d="M-20 1028h174l256 -487l256 487h174l-189 -328h121v-100h-178l-92 -158h248v-98h-267v-344h-147v344h-262v98h241l-92 158h-184v100h129z"/>
      <glyph glyph-name="section" unicode="&#xa7;" horiz-adv-x="831"
             d="M53 440q0 133 154 226q-70 59 -70 155t60 166q72 86 211 86q272 0 282 -272h-137q-12 154 -141 153q-135 0 -136 -114q0 -45 27 -74q20 -20 90 -61l203 -119q168 -98 168 -240q0 -131 -152 -237q82 -72 82 -172q0 -96 -69 -168q-80 -80 -217 -80q-272 0 -291 280h139
q10 -160 145 -159q150 0 150 118q0 41 -25.5 70t-107.5 82l-189 123q-90 59 -129 104q-47 57 -47 133zM190 467q0 -80 78 -129l264 -168q96 55 97 147q0 80 -129 158l-215 129q-95 -53 -95 -137z"/>
      <glyph glyph-name="dieresis" unicode="&#xa8;" horiz-adv-x="681"
             d="M-41 1239v213h197v-213h-197zM299 1239v213h197v-213h-197z"/>
      <glyph glyph-name="copyright" unicode="&#xa9;" horiz-adv-x="1101"
             d="M14 539q0 242 170 393q154 139 367 139q201 0 356 -129q180 -150 180 -403q0 -240 -167 -396q-156 -143 -369 -143q-207 0 -361 135q-176 154 -176 404zM94 539q0 -174 111 -308q129 -156 346 -155q170 0 301 112q154 129 154 351q0 170 -109 303q-129 156 -346 155
q-170 0 -303 -112q-154 -129 -154 -346zM272 541q0 119 56 202q74 113 223 113q240 0 262 -221h-96q-18 131 -156 131q-82 0 -129 -61.5t-47 -159.5t45 -162q49 -70 139 -70q119 0 152 121h94q-16 -102 -86 -156.5t-164 -54.5q-137 0 -219 99q-74 88 -74 219z"/>
      <glyph glyph-name="ordfeminine" unicode="&#xaa;" horiz-adv-x="1138"
             d="M78 283q0 293 348 335l260 33q39 4 107 19v100q0 166 -244 166q-215 0 -236 -193h-182q6 356 424 357q199 0 313.5 -77t114.5 -226v-600q0 -152 16 -197h-180q-23 51 -22 139q-133 -174 -379 -176q-139 0 -234 78q-106 88 -106 242zM281 289q0 -74 50 -119t134 -45
q125 0 215 63q109 76 108 215v119q-59 -16 -180 -33l-102 -14q-225 -30 -225 -186z"/>
      <glyph glyph-name="guillemotleft" unicode="&#xab;" horiz-adv-x="1138"
             d="M193 463v194l323 258v-188l-213 -168l213 -166v-188zM612 463v194l328 258v-188l-215 -168l215 -166v-188z"/>
      <glyph glyph-name="uni00AD" unicode="&#xad;" horiz-adv-x="681"
             d="M80 471v199h512v-199h-512z"/>
      <glyph glyph-name="registered" unicode="&#xae;" horiz-adv-x="1101"
             d="M14 539q0 227 164 383q158 150 373 149q201 0 356 -129q180 -150 180 -403q0 -240 -167 -396q-156 -143 -369 -143q-203 0 -356 129q-181 152 -181 410zM92 539q0 -180 119 -314q129 -150 340 -149q172 0 305 112q154 131 154 351q0 170 -113 303q-129 156 -346 155
q-188 0 -323.5 -132.5t-135.5 -325.5zM332 244v590h213q250 0 250 -170q0 -121 -144 -146q133 -27 133 -151v-45q0 -61 11 -78h-105q-2 12 -6 37v43q0 78 -29 110q-35 39 -133 39h-80v-229h-110zM442 551h90q152 0 152 104q0 102 -160 103h-82v-207z"/>
      <glyph glyph-name="macron" unicode="&#xaf;" horiz-adv-x="681"
             d="M-98 1284v125h647v-125h-647z"/>
      <glyph glyph-name="degree" unicode="&#xb0;" horiz-adv-x="819"
             d="M109 1128q0 129 88 218.5t217 89.5q137 0 223 -97q82 -88 82 -209q0 -119 -80 -206q-88 -98 -225 -99q-125 0 -215 88t-90 215zM225 1130q0 -68 45 -122q54 -66 144 -66q70 0 123 43q66 51 65 145q0 68 -41 121q-53 68 -147 68q-76 0 -132.5 -55.5t-56.5 -133.5z"/>
      <glyph glyph-name="acute" unicode="&#xb4;" horiz-adv-x="681"
             d="M86 1217l182 288h238l-275 -288h-145z"/>
      <glyph glyph-name="paragraph" unicode="&#xb6;" horiz-adv-x="806"
             d="M-14 723q0 145 86 240q96 109 280 108h426v-88h-90v-1249h-115v1249h-165v-1249h-111v647q-152 2 -238 111q-73 94 -73 231z"/>
      <glyph glyph-name="periodcentered" unicode="&#xb7;" horiz-adv-x="569"
             d="M145 702q0 51 34 93.5t100 42.5q53 0 94 -38.5t41 -97.5q0 -45 -31 -84q-37 -47 -104 -47q-51 0 -89 33q-45 35 -45 98z"/>
      <glyph glyph-name="cedilla" unicode="&#xb8;" horiz-adv-x="681"
             d="M-8 -418l35 80q88 -31 137 -31q117 0 117 88q0 35 -31 55.5t-68 20.5q-41 0 -80 -16l-49 53l142 168h98l-92 -129q31 10 73 10q164 0 164 -155q0 -76 -53 -127q-66 -61 -195 -62q-83 0 -198 45z"/>
      <glyph glyph-name="guillemotright" unicode="&#xbb;" horiz-adv-x="1138"
             d="M193 205v188l210 166l-210 168v188l325 -258v-194zM614 205v188l209 166l-209 168v188l326 -258v-194z"/>
      <glyph glyph-name="questiondown" unicode="&#xbf;" horiz-adv-x="1251"
             d="M178 -6q0 94 33 153.5t143 167.5l105 103q90 88 90 276h192q-2 -152 -30 -225q-35 -90 -150 -199l-80 -75q-98 -94 -98 -201q0 -236 246 -236q252 0 264 310h194q-2 -217 -120 -347q-125 -133 -340 -133q-195 0 -322 111t-127 295zM532 856v221h213v-221h-213z"/>
      <glyph glyph-name="Agrave" unicode="&#xc0;" horiz-adv-x="1009"
             d="M25 0l401 1071h176l387 -1071h-172l-100 307h-420l-111 -307h-161zM305 1370h174l133 -211h-106zM340 434h328l-162 467z"/>
      <glyph glyph-name="Aacute" unicode="&#xc1;" horiz-adv-x="1009"
             d="M25 0l401 1071h176l387 -1071h-172l-100 307h-420l-111 -307h-161zM340 434h328l-162 467zM406 1159l133 211h172l-199 -211h-106z"/>
      <glyph glyph-name="Acircumflex" unicode="&#xc2;" horiz-adv-x="1009"
             d="M25 0l401 1071h176l387 -1071h-172l-100 307h-420l-111 -307h-161zM285 1159l151 211h144l153 -211h-127l-98 139l-98 -139h-125zM340 434h328l-162 467z"/>
      <glyph glyph-name="Atilde" unicode="&#xc3;" horiz-adv-x="1009"
             d="M25 0l401 1071h176l387 -1071h-172l-100 307h-420l-111 -307h-161zM250 1174q25 164 158 163q57 0 133 -34q45 -20 73 -21q59 0 72 66h80q-25 -166 -156 -166q-29 0 -111.5 29.5t-109.5 29.5q-51 0 -65 -67h-74zM340 434h328l-162 467z"/>
      <glyph glyph-name="Adieresis" unicode="&#xc4;" horiz-adv-x="1009"
             d="M25 0l401 1071h176l387 -1071h-172l-100 307h-420l-111 -307h-161zM313 1178v153h144v-153h-144zM340 434h328l-162 467zM561 1178v153h144v-153h-144z"/>
      <glyph glyph-name="Aring" unicode="&#xc5;" horiz-adv-x="1009"
             d="M25 0l401 1071h176l387 -1071h-172l-100 307h-420l-111 -307h-161zM340 434h328l-162 467zM352 1309q0 55 31 96q41 57 123 57q55 0 100 -37q53 -43 53 -116q0 -55 -36 -101q-43 -53 -117 -53q-57 0 -100 37q-54 43 -54 117zM416 1309q0 -33 20 -58q25 -35 70 -34
q39 0 65.5 27.5t26.5 64.5q0 90 -92 90q-41 0 -65.5 -26.5t-24.5 -63.5z"/>
      <glyph glyph-name="AE" unicode="&#xc6;" horiz-adv-x="1495"
             d="M12 0l428 1071h969v-135h-575v-313h528v-131h-528v-357h589v-135h-745v305h-385l-113 -305h-168zM346 436h332v504h-137z"/>
      <glyph glyph-name="Ccedilla" unicode="&#xc7;" horiz-adv-x="1079"
             d="M66 545q0 254 135 404.5t362 150.5q184 0 308 -97.5t139 -257.5h-154q-53 219 -291 220q-164 0 -252 -115t-88 -328q0 -190 86 -299q90 -115 252 -114q238 0 301 282h154q-23 -205 -164 -319q-123 -100 -289 -101l-47 -65q29 8 55 8q119 0 119 -115q0 -59 -43 -96
q-49 -41 -137 -41q-72 0 -145 33l24 59q59 -23 101 -22q84 0 83 63q0 55 -69 55q-27 0 -60 -12l-26 31l74 102q-158 0 -275 121q-153 156 -153 453z"/>
      <glyph glyph-name="Egrave" unicode="&#xc8;" horiz-adv-x="997"
             d="M125 0v1071h784v-137h-628v-311h579v-134h-579v-354h641v-135h-797zM330 1370h172l133 -211h-107z"/>
      <glyph glyph-name="Eacute" unicode="&#xc9;" horiz-adv-x="997"
             d="M125 0v1071h784v-137h-628v-311h579v-134h-579v-354h641v-135h-797zM428 1159l133 211h172l-198 -211h-107z"/>
      <glyph glyph-name="Ecircumflex" unicode="&#xca;" horiz-adv-x="997"
             d="M125 0v1071h784v-137h-628v-311h579v-134h-579v-354h641v-135h-797zM307 1159l154 211h143l152 -211h-125l-99 139l-98 -139h-127z"/>
      <glyph glyph-name="Edieresis" unicode="&#xcb;" horiz-adv-x="997"
             d="M125 0v1071h784v-137h-628v-311h579v-134h-579v-354h641v-135h-797zM336 1178v153h143v-153h-143zM584 1178v153h143v-153h-143z"/>
      <glyph glyph-name="Igrave" unicode="&#xcc;" horiz-adv-x="415"
             d="M12 1370h174l131 -211h-104zM139 0v1071h158v-1071h-158z"/>
      <glyph glyph-name="Iacute" unicode="&#xcd;" horiz-adv-x="415"
             d="M115 1159l133 211h174l-201 -211h-106zM139 0v1071h158v-1071h-158z"/>
      <glyph glyph-name="Icircumflex" unicode="&#xce;" horiz-adv-x="415"
             d="M-18 1159l153 211h144l151 -211h-125l-98 139l-98 -139h-127zM139 0v1071h158v-1071h-158z"/>
      <glyph glyph-name="Idieresis" unicode="&#xcf;" horiz-adv-x="415"
             d="M12 1178v153h144v-153h-144zM139 0v1071h158v-1071h-158zM260 1178v153h143v-153h-143z"/>
      <glyph glyph-name="Ntilde" unicode="&#xd1;" horiz-adv-x="1079"
             d="M113 0v1071h182l524 -852v852h150v-1071h-172l-535 854v-854h-149zM281 1174q18 164 157 163q55 0 131 -34q45 -20 76 -21q59 0 72 66h78q-20 -166 -156 -166q-31 0 -113 29.5t-108 29.5q-49 0 -64 -67h-73z"/>
      <glyph glyph-name="Ograve" unicode="&#xd2;" horiz-adv-x="1163"
             d="M59 532q0 268 150 424q141 147 371 148q236 0 372 -129q152 -143 152 -422q0 -262 -141.5 -423t-384.5 -161q-233 0 -373 144q-146 151 -146 419zM221 524q0 -203 97.5 -309t273.5 -106q162 0 257 113.5t95 328.5q0 197 -104 309q-98 104 -254 105q-166 0 -265.5 -116
t-99.5 -325zM385 1399h174l133 -211h-106z"/>
      <glyph glyph-name="Oacute" unicode="&#xd3;" horiz-adv-x="1163"
             d="M59 532q0 268 150 424q141 147 371 148q236 0 372 -129q152 -143 152 -422q0 -262 -141.5 -423t-384.5 -161q-233 0 -373 144q-146 151 -146 419zM221 524q0 -203 97.5 -309t273.5 -106q162 0 257 113.5t95 328.5q0 197 -104 309q-98 104 -254 105q-166 0 -265.5 -116
t-99.5 -325zM485 1188l131 211h175l-201 -211h-105z"/>
      <glyph glyph-name="Ocircumflex" unicode="&#xd4;" horiz-adv-x="1163"
             d="M59 532q0 268 150 424q141 147 371 148q236 0 372 -129q152 -143 152 -422q0 -262 -141.5 -423t-384.5 -161q-233 0 -373 144q-146 151 -146 419zM221 524q0 -203 97.5 -309t273.5 -106q162 0 257 113.5t95 328.5q0 197 -104 309q-98 104 -254 105q-166 0 -265.5 -116
t-99.5 -325zM365 1188l153 211h144l151 -211h-125l-98 139l-101 -139h-124z"/>
      <glyph glyph-name="Otilde" unicode="&#xd5;" horiz-adv-x="1163"
             d="M59 532q0 268 150 424q141 147 371 148q236 0 372 -129q152 -143 152 -422q0 -262 -141.5 -423t-384.5 -161q-233 0 -373 144q-146 151 -146 419zM221 524q0 -203 97.5 -309t273.5 -106q162 0 257 113.5t95 328.5q0 197 -104 309q-98 104 -254 105q-166 0 -265.5 -116
t-99.5 -325zM330 1202q25 162 159 162q59 0 132 -33q49 -23 73 -22q61 0 72 67h80q-25 -166 -156 -166q-31 0 -112.5 30t-108.5 30q-49 0 -63 -68h-76z"/>
      <glyph glyph-name="Odieresis" unicode="&#xd6;" horiz-adv-x="1163"
             d="M59 532q0 268 150 424q141 147 371 148q236 0 372 -129q152 -143 152 -422q0 -262 -141.5 -423t-384.5 -161q-233 0 -373 144q-146 151 -146 419zM221 524q0 -203 97.5 -309t273.5 -106q162 0 257 113.5t95 328.5q0 197 -104 309q-98 104 -254 105q-166 0 -265.5 -116
t-99.5 -325zM391 1204v156h144v-156h-144zM639 1204v156h145v-156h-145z"/>
      <glyph glyph-name="Oslash" unicode="&#xd8;" horiz-adv-x="1163"
             d="M53 14l121 133q-115 147 -115 385q0 268 150 424q141 147 371 148q227 0 364 -123l111 119l43 -45l-109 -121q115 -141 115 -381q0 -262 -141.5 -423t-384.5 -161q-219 0 -355 123q-31 -33 -117 -129zM221 524q1 -160 62 -262l553 602q-94 100 -250 101
q-166 0 -265.5 -116t-99.5 -325zM326 205q100 -96 266 -96q162 0 257 113.5t95 328.5q1 156 -65 260z"/>
      <glyph glyph-name="Ugrave" unicode="&#xd9;" horiz-adv-x="1079"
             d="M123 438v633h160v-661q0 -301 252 -301q276 0 276 301v661h160v-633q0 -467 -426 -467q-422 0 -422 467zM352 1370h172l133 -211h-106z"/>
      <glyph glyph-name="Uacute" unicode="&#xda;" horiz-adv-x="1079"
             d="M123 438v633h160v-661q0 -301 252 -301q276 0 276 301v661h160v-633q0 -467 -426 -467q-422 0 -422 467zM451 1159l133 211h172l-199 -211h-106z"/>
      <glyph glyph-name="Ucircumflex" unicode="&#xdb;" horiz-adv-x="1079"
             d="M123 438v633h160v-661q0 -301 252 -301q276 0 276 301v661h160v-633q0 -467 -426 -467q-422 0 -422 467zM330 1159l153 211h144l151 -211h-125l-98 139l-98 -139h-127z"/>
      <glyph glyph-name="Udieresis" unicode="&#xdc;" horiz-adv-x="1079"
             d="M123 438v633h160v-661q0 -301 252 -301q276 0 276 301v661h160v-633q0 -467 -426 -467q-422 0 -422 467zM356 1178v153h146v-153h-146zM606 1178v153h144v-153h-144z"/>
      <glyph glyph-name="germandbls" unicode="&#xdf;" horiz-adv-x="913"
             d="M139 0v750q0 338 305 337q133 0 215 -55q102 -70 103 -213q0 -156 -121 -219q174 -45 174 -270q0 -133 -67 -230q-86 -121 -254 -120q-57 0 -95 6v123q23 -6 64 -7q205 0 205 222q0 201 -203 204q-27 0 -57 -6v123q12 -4 32 -4q180 2 181 162q0 164 -172 164
q-84 0 -123 -43q-45 -49 -45 -179v-745h-142z"/>
      <glyph glyph-name="agrave" unicode="&#xe0;"
             d="M57 512q0 258 126 420t335 162q195 0 324 -166v145h180v-1073h-178v150q-129 -188 -344 -189q-172 0 -297 137q-146 154 -146 414zM262 524q0 -197 84 -299q78 -94 213 -94q123 0 199 96q82 106 82 308q0 184 -76 286.5t-207 102.5q-135 0 -215 -106t-80 -294zM289 1505
h237l183 -288h-146z"/>
      <glyph glyph-name="aacute" unicode="&#xe1;"
             d="M57 512q0 258 126 420t335 162q195 0 324 -166v145h180v-1073h-178v150q-129 -188 -344 -189q-172 0 -297 137q-146 154 -146 414zM262 524q0 -197 84 -299q78 -94 213 -94q123 0 199 96q82 106 82 308q0 184 -76 286.5t-207 102.5q-135 0 -215 -106t-80 -294zM426 1217
l182 288h238l-275 -288h-145z"/>
      <glyph glyph-name="acircumflex" unicode="&#xe2;"
             d="M57 512q0 258 126 420t335 162q195 0 324 -166v145h180v-1073h-178v150q-129 -188 -344 -189q-172 0 -297 137q-146 154 -146 414zM260 1217l209 288h197l208 -288h-172l-135 188l-135 -188h-172zM262 524q0 -197 84 -299q78 -94 213 -94q123 0 199 96q82 106 82 308
q0 184 -76 286.5t-207 102.5q-135 0 -215 -106t-80 -294z"/>
      <glyph glyph-name="atilde" unicode="&#xe3;"
             d="M57 512q0 258 126 420t335 162q195 0 324 -166v145h180v-1073h-178v150q-129 -188 -344 -189q-172 0 -297 137q-146 154 -146 414zM213 1235q31 223 217 223q76 0 180 -47q63 -29 103 -29q82 0 98 93h109q-33 -227 -213 -228q-45 0 -156 40t-148 40q-70 0 -88 -92h-102z
M262 524q0 -197 84 -299q78 -94 213 -94q123 0 199 96q82 106 82 308q0 184 -76 286.5t-207 102.5q-135 0 -215 -106t-80 -294z"/>
      <glyph glyph-name="adieresis" unicode="&#xe4;"
             d="M57 512q0 258 126 420t335 162q195 0 324 -166v145h180v-1073h-178v150q-129 -188 -344 -189q-172 0 -297 137q-146 154 -146 414zM262 524q0 -197 84 -299q78 -94 213 -94q123 0 199 96q82 106 82 308q0 184 -76 286.5t-207 102.5q-135 0 -215 -106t-80 -294zM299 1239
v213h197v-213h-197zM639 1239v213h197v-213h-197z"/>
      <glyph glyph-name="aring" unicode="&#xe5;"
             d="M57 512q0 258 126 420t335 162q195 0 324 -166v145h180v-1073h-178v150q-129 -188 -344 -189q-172 0 -297 137q-146 154 -146 414zM262 524q0 -197 84 -299q78 -94 213 -94q123 0 199 96q82 106 82 308q0 184 -76 286.5t-207 102.5q-135 0 -215 -106t-80 -294zM356 1421
q0 74 41 131q57 78 170 78q76 0 137 -49q72 -59 72 -160q0 -76 -49 -137q-59 -74 -160 -74q-80 0 -139 52q-72 57 -72 159zM442 1421q0 -45 27 -82q35 -45 98 -45q53 0 89 38t36 89q0 45 -28 80q-35 43 -97 43q-55 0 -90 -37t-35 -86z"/>
      <glyph glyph-name="ae" unicode="&#xe6;" horiz-adv-x="1820"
             d="M72 276q0 293 331 338l269 37q86 12 108 25v92q0 166 -229 166q-244 0 -248 -195h-188q8 166 92 250q106 109 354 111q242 2 350 -156q127 156 342 156q485 0 484 -623h-781q4 -162 78 -255t209 -93q98 0 154 27q92 45 129 178h196q-16 -125 -108 -225
q-133 -145 -375 -146q-121 0 -233.5 61.5t-157.5 161.5q-158 -223 -416 -223q-160 0 -256 78q-104 84 -104 235zM268 289q0 -82 66 -127q57 -41 139 -41q104 0 193 61q111 80 110 228v114q-33 -10 -131 -26l-145 -25q-119 -20 -168 -53q-64 -41 -64 -131zM958 627h572
q-2 127 -62 207q-72 98 -217 98q-115 0 -192 -68q-91 -79 -101 -237z"/>
      <glyph glyph-name="ccedilla" unicode="&#xe7;" horiz-adv-x="1040"
             d="M61 508q0 260 125 424q133 172 365 172q397 0 440 -395h-192q-33 223 -248 223q-283 0 -283 -424q0 -158 56 -254q70 -121 217 -121q209 0 258 248h192q-27 -197 -143.5 -304.5t-292.5 -109.5l-70 -96q37 10 76 10q74 0 119 -43t45 -112q0 -80 -61 -132q-68 -57 -185 -57
q-84 0 -200 45l36 80q80 -31 136 -31q115 0 114 88q0 76 -96 76q-41 0 -80 -16l-39 41l109 147q-158 0 -271 135q-127 152 -127 406z"/>
      <glyph glyph-name="egrave" unicode="&#xe8;" horiz-adv-x="1138"
             d="M68 516q0 258 137 421t370 163q227 0 355 -156q133 -164 125 -469h-781q12 -346 293 -346q236 0 281 205h192q-23 -178 -149.5 -275.5t-308.5 -97.5q-221 0 -361 135q-153 148 -153 420zM281 625h573q-25 305 -287 305q-109 0 -188 -72q-92 -81 -98 -233zM293 1505h237
l183 -288h-146z"/>
      <glyph glyph-name="eacute" unicode="&#xe9;" horiz-adv-x="1138"
             d="M68 516q0 258 137 421t370 163q227 0 355 -156q133 -164 125 -469h-781q12 -346 293 -346q236 0 281 205h192q-23 -178 -149.5 -275.5t-308.5 -97.5q-221 0 -361 135q-153 148 -153 420zM281 625h573q-25 305 -287 305q-109 0 -188 -72q-92 -81 -98 -233zM428 1217
l182 288h238l-275 -288h-145z"/>
      <glyph glyph-name="ecircumflex" unicode="&#xea;" horiz-adv-x="1138"
             d="M68 516q0 258 137 421t370 163q227 0 355 -156q133 -164 125 -469h-781q12 -346 293 -346q236 0 281 205h192q-23 -178 -149.5 -275.5t-308.5 -97.5q-221 0 -361 135q-153 148 -153 420zM264 1217l209 288h197l208 -288h-172l-135 188l-135 -188h-172zM281 625h573
q-25 305 -287 305q-109 0 -188 -72q-92 -81 -98 -233z"/>
      <glyph glyph-name="edieresis" unicode="&#xeb;" horiz-adv-x="1138"
             d="M68 516q0 258 137 421t370 163q227 0 355 -156q133 -164 125 -469h-781q12 -346 293 -346q236 0 281 205h192q-23 -178 -149.5 -275.5t-308.5 -97.5q-221 0 -361 135q-153 148 -153 420zM281 625h573q-25 305 -287 305q-109 0 -188 -72q-92 -81 -98 -233zM301 1239v213
h197v-213h-197zM641 1239v213h197v-213h-197z"/>
      <glyph glyph-name="igrave" unicode="&#xec;" horiz-adv-x="569"
             d="M-20 1505h237l183 -288h-146zM180 0v1071h201v-1071h-201z"/>
      <glyph glyph-name="iacute" unicode="&#xed;" horiz-adv-x="569"
             d="M164 1217l182 288h238l-275 -288h-145zM180 0v1071h201v-1071h-201z"/>
      <glyph glyph-name="icircumflex" unicode="&#xee;" horiz-adv-x="569"
             d="M-25 1217l209 288h197l208 -288h-172l-135 188l-135 -188h-172zM180 0v1071h201v-1071h-201z"/>
      <glyph glyph-name="idieresis" unicode="&#xef;" horiz-adv-x="569"
             d="M16 1239v213h197v-213h-197zM180 0v1071h201v-1071h-201zM356 1239v213h197v-213h-197z"/>
      <glyph glyph-name="ntilde" unicode="&#xf1;"
             d="M131 0v1073h186v-151q135 176 349 176q356 0 356 -406v-692h-199v674q0 252 -200 252q-123 0 -207 -76q-90 -84 -90 -223v-627h-195zM213 1235q31 223 217 223q76 0 180 -47q63 -29 103 -29q82 0 98 93h109q-33 -227 -213 -228q-45 0 -156 40t-148 40q-70 0 -88 -92h-102
z"/>
      <glyph glyph-name="ograve" unicode="&#xf2;"
             d="M59 516q0 258 131 418q139 172 381 172q213 0 351 -133q152 -147 151 -418q0 -260 -117 -416q-135 -178 -403 -178q-211 0 -342 131q-152 148 -152 424zM260 518q0 -389 305 -389t305 422q0 385 -303 385q-139 0 -219 -96q-88 -109 -88 -322zM289 1505h237l183 -288h-146
z"/>
      <glyph glyph-name="oacute" unicode="&#xf3;"
             d="M59 516q0 258 131 418q139 172 381 172q213 0 351 -133q152 -147 151 -418q0 -260 -117 -416q-135 -178 -403 -178q-211 0 -342 131q-152 148 -152 424zM260 518q0 -389 305 -389t305 422q0 385 -303 385q-139 0 -219 -96q-88 -109 -88 -322zM426 1217l182 288h238
l-275 -288h-145z"/>
      <glyph glyph-name="ocircumflex" unicode="&#xf4;"
             d="M59 516q0 258 131 418q139 172 381 172q213 0 351 -133q152 -147 151 -418q0 -260 -117 -416q-135 -178 -403 -178q-211 0 -342 131q-152 148 -152 424zM260 518q0 -389 305 -389t305 422q0 385 -303 385q-139 0 -219 -96q-88 -109 -88 -322zM260 1217l209 288h197
l208 -288h-172l-135 188l-135 -188h-172z"/>
      <glyph glyph-name="otilde" unicode="&#xf5;"
             d="M59 516q0 258 131 418q139 172 381 172q213 0 351 -133q152 -147 151 -418q0 -260 -117 -416q-135 -178 -403 -178q-211 0 -342 131q-152 148 -152 424zM215 1235q31 223 217 223q76 0 180 -47q63 -29 103 -29q82 0 98 93h109q-33 -227 -213 -228q-45 0 -156 40t-148 40
q-70 0 -88 -92h-102zM260 518q0 -389 305 -389t305 422q0 385 -303 385q-139 0 -219 -96q-88 -109 -88 -322z"/>
      <glyph glyph-name="odieresis" unicode="&#xf6;"
             d="M59 516q0 258 131 418q139 172 381 172q213 0 351 -133q152 -147 151 -418q0 -260 -117 -416q-135 -178 -403 -178q-211 0 -342 131q-152 148 -152 424zM260 518q0 -389 305 -389t305 422q0 385 -303 385q-139 0 -219 -96q-88 -109 -88 -322zM299 1239v213h197v-213h-197
zM639 1239v213h197v-213h-197z"/>
      <glyph glyph-name="oslash" unicode="&#xf8;" horiz-adv-x="1251"
             d="M86 4l129 135q-106 147 -106 385q0 223 110 385q135 197 389 197q199 0 357 -133l127 143l55 -53l-129 -143q106 -168 106 -367q0 -252 -131 -416q-143 -178 -387 -178q-211 0 -336 121l-123 -129zM307 518q0 -98 37 -209l6 -18l490 549q-68 96 -222 96q-125 0 -208 -88
q-103 -111 -103 -330zM395 221q45 -45 64 -55q57 -37 153 -37q137 0 219 98q88 109 89 314q0 127 -39 227z"/>
      <glyph glyph-name="ugrave" unicode="&#xf9;"
             d="M129 348v725h197v-702q0 -229 200 -230q125 0 206 84t81 215v633h193v-1073h-181l-2 158q-111 -186 -336 -187q-358 0 -358 377zM291 1505h237l183 -288h-146z"/>
      <glyph glyph-name="uacute" unicode="&#xfa;"
             d="M129 348v725h197v-702q0 -229 200 -230q125 0 206 84t81 215v633h193v-1073h-181l-2 158q-111 -186 -336 -187q-358 0 -358 377zM428 1217l182 288h238l-275 -288h-145z"/>
      <glyph glyph-name="ucircumflex" unicode="&#xfb;"
             d="M129 348v725h197v-702q0 -229 200 -230q125 0 206 84t81 215v633h193v-1073h-181l-2 158q-111 -186 -336 -187q-358 0 -358 377zM262 1217l209 288h197l208 -288h-172l-135 188l-135 -188h-172z"/>
      <glyph glyph-name="udieresis" unicode="&#xfc;"
             d="M129 348v725h197v-702q0 -229 200 -230q125 0 206 84t81 215v633h193v-1073h-181l-2 158q-111 -186 -336 -187q-358 0 -358 377zM301 1239v213h197v-213h-197zM641 1239v213h197v-213h-197z"/>
      <glyph glyph-name="ydieresis" unicode="&#xff;" horiz-adv-x="1040"
             d="M20 1073h222l278 -862l281 862h213l-418 -1153q-80 -219 -147.5 -288.5t-210.5 -69.5q-49 0 -111 10v176q59 -18 100 -18q63 0 99 34q27 29 53 99l39 102zM252 1239v213h197v-213h-197zM592 1239v213h197v-213h-197z"/>
      <glyph glyph-name="OE" unicode="&#x152;" horiz-adv-x="1495"
             d="M53 528q0 219 86 367q119 201 369 201q178 0 268 -125v100h664v-135h-516v-315h489v-132h-489v-354h518v-135h-668v106q-80 -131 -293 -131q-195 0 -311.5 157.5t-116.5 395.5zM211 522q0 -186 74 -297q82 -123 239 -123q92 0 158 50q84 63 84 196v391q0 102 -69.5 166
t-178.5 64q-307 -1 -307 -447z"/>
      <glyph glyph-name="oe" unicode="&#x153;" horiz-adv-x="1921"
             d="M59 516q0 258 131 418q139 172 381 172q272 0 410 -207q137 201 397 201q227 0 355 -156q133 -164 125 -469h-781q12 -346 293 -346q236 0 281 205h192q-23 -178 -149.5 -275.5t-309.5 -97.5q-276 0 -413 201q-135 -201 -418 -201q-211 0 -342 131q-152 147 -152 424z
M260 518q0 -389 305 -389t305 422q0 385 -303 385q-139 0 -219 -96q-88 -109 -88 -322zM1083 625h574q-25 305 -287 305q-109 0 -188 -72q-93 -81 -99 -233z"/>
      <glyph glyph-name="Ydieresis" unicode="&#x178;" horiz-adv-x="997"
             d="M31 1071h182l297 -506l295 506h182l-399 -643v-428h-158v428zM322 1178v153h143v-153h-143zM569 1178v153h144v-153h-144z"/>
      <glyph glyph-name="circumflex" unicode="&#x2c6;" horiz-adv-x="681"
             d="M-82 1217l209 288h197l208 -288h-172l-135 188l-135 -188h-172z"/>
      <glyph glyph-name="tilde" unicode="&#x2dc;" horiz-adv-x="681"
             d="M-129 1235q31 223 217 223q76 0 180 -47q63 -29 103 -29q82 0 98 93h109q-33 -227 -213 -228q-45 0 -156 40t-148 40q-70 0 -88 -92h-102z"/>
      <glyph glyph-name="uni2000" unicode="&#x2000;" horiz-adv-x="815"
      />
      <glyph glyph-name="uni2001" unicode="&#x2001;" horiz-adv-x="1630"
      />
      <glyph glyph-name="uni2002" unicode="&#x2002;" horiz-adv-x="815"
      />
      <glyph glyph-name="uni2003" unicode="&#x2003;" horiz-adv-x="1630"
      />
      <glyph glyph-name="uni2004" unicode="&#x2004;" horiz-adv-x="543"
      />
      <glyph glyph-name="uni2005" unicode="&#x2005;" horiz-adv-x="407"
      />
      <glyph glyph-name="uni2006" unicode="&#x2006;" horiz-adv-x="271"
      />
      <glyph glyph-name="uni2007" unicode="&#x2007;" horiz-adv-x="271"
      />
      <glyph glyph-name="uni2008" unicode="&#x2008;" horiz-adv-x="203"
      />
      <glyph glyph-name="uni2009" unicode="&#x2009;" horiz-adv-x="326"
      />
      <glyph glyph-name="uni200A" unicode="&#x200a;" horiz-adv-x="90"
      />
      <glyph glyph-name="uni2010" unicode="&#x2010;" horiz-adv-x="681"
             d="M80 471v199h512v-199h-512z"/>
      <glyph glyph-name="uni2011" unicode="&#x2011;" horiz-adv-x="681"
             d="M80 471v199h512v-199h-512z"/>
      <glyph glyph-name="figuredash" unicode="&#x2012;" horiz-adv-x="681"
             d="M80 471v199h512v-199h-512z"/>
      <glyph glyph-name="endash" unicode="&#x2013;" horiz-adv-x="1138"
             d="M-4 489v158h1147v-158h-1147z"/>
      <glyph glyph-name="emdash" unicode="&#x2014;" horiz-adv-x="2048"
             d="M242 489v158h1564v-158h-1564z"/>
      <glyph glyph-name="quoteleft" unicode="&#x2018;" horiz-adv-x="471"
             d="M131 956v203q0 285 225 324v-94q-115 -23 -114 -207h114v-226h-225z"/>
      <glyph glyph-name="quoteright" unicode="&#x2019;" horiz-adv-x="471"
             d="M164 1245v223h225v-202q0 -285 -223 -324v96q115 20 115 207h-117z"/>
      <glyph glyph-name="quotesinglbase" unicode="&#x201a;" horiz-adv-x="471"
             d="M166 0v227h227v-207q0 -285 -225 -327v96q113 20 115 211h-117z"/>
      <glyph glyph-name="quotedblleft" unicode="&#x201c;" horiz-adv-x="729"
             d="M84 956v203q0 287 225 324v-94q-119 -25 -114 -207h114v-226h-225zM442 956v203q0 287 224 324v-94q-115 -23 -115 -207h115v-226h-224z"/>
      <glyph glyph-name="quotedblright" unicode="&#x201d;" horiz-adv-x="729"
             d="M88 942v96q117 20 115 207h-115v223h225v-202q0 -285 -225 -324zM442 1245v223h226v-202q0 -285 -224 -324v96q115 23 115 207h-117z"/>
      <glyph glyph-name="quotedblbase" unicode="&#x201e;" horiz-adv-x="729"
             d="M88 0v227h225v-207q0 -285 -225 -327v96q115 20 115 211h-115zM438 0v227h228v-207q0 -289 -226 -327v96q113 20 115 211h-117z"/>
      <glyph glyph-name="bullet" unicode="&#x2022;" horiz-adv-x="716"
             d="M289 733q0 84 47 146q59 76 174 75q86 0 147 -51q74 -61 74 -170q0 -94 -63.5 -157.5t-157.5 -63.5q-88 0 -152 55q-69 64 -69 166z"/>
      <glyph glyph-name="ellipsis" unicode="&#x2026;" horiz-adv-x="2048"
             d="M231 0v229h222v-229h-222zM913 0v229h222v-229h-222zM1595 0v229h222v-229h-222z"/>
      <glyph glyph-name="uni202F" unicode="&#x202f;" horiz-adv-x="326"
      />
      <glyph glyph-name="guilsinglleft" unicode="&#x2039;" horiz-adv-x="681"
             d="M178 463v194l326 258v-188l-215 -168l215 -166v-188z"/>
      <glyph glyph-name="guilsinglright" unicode="&#x203a;" horiz-adv-x="681"
             d="M170 205v188l213 166l-213 168v188l326 -258v-194z"/>
      <glyph glyph-name="uni205F" unicode="&#x205f;" horiz-adv-x="407"
      />
      <glyph glyph-name="trademark" unicode="&#x2122;" horiz-adv-x="1495"
             d="M170 977v94h453v-94h-170v-436h-113v436h-170zM709 541v530h161l129 -366l131 366h162v-530h-104v424l-144 -424h-90l-143 424v-424h-102z"/>
      <glyph glyph-name="uni25FC" unicode="&#x25fc;" horiz-adv-x="1075"
             d="M0 0v1075h1075v-1075h-1075z"/>
    </font>
</defs>
</svg>
