<?xml version="1.0" standalone="no"?>
<!DOCTYPE svg PUBLIC "-//W3C//DTD SVG 1.1//EN" "http://www.w3.org/Graphics/SVG/1.1/DTD/svg11.dtd" >
<svg xmlns:xlink="http://www.w3.org/1999/xlink" xmlns="http://www.w3.org/2000/svg" version="1.1">
  <metadata>
    Created by FontForge 20170731 at Tue Mar 10 18:16:54 2015
    By Aleksey,,,
    (c)1992 FontShop International GmbH
  </metadata>
  <defs>
    <font id="WagamamaBold" horiz-adv-x="1261">
      <font-face
        font-family="Wagamama"
        font-weight="700"
        font-stretch="normal"
        units-per-em="2048"
        panose-1="0 0 7 0 0 0 0 0 0 0"
        ascent="1638"
        descent="-410"
        x-height="1090"
        cap-height="1077"
        bbox="-117 -473 1921.65 1952"
        underline-thickness="0"
        underline-position="0"
        unicode-range="U+000D-25FC"
      />
      <missing-glyph horiz-adv-x="748"
                     d="M68 0v1365h544v-1365h-544zM136 68h408v1229h-408v-1229z"/>
      <glyph glyph-name=".notdef" horiz-adv-x="748"
             d="M68 0v1365h544v-1365h-544zM136 68h408v1229h-408v-1229z"/>
      <glyph glyph-name="glyph1" horiz-adv-x="0"
      />
      <glyph glyph-name="uni000D" unicode="&#xd;" horiz-adv-x="540"
      />
      <glyph glyph-name="space" unicode=" " horiz-adv-x="540"
      />
      <glyph glyph-name="exclam" unicode="!" horiz-adv-x="505"
             d="M164 807v264h237v-264l-63 -506h-113zM168 0v217h227v-217h-227z"/>
      <glyph glyph-name="quotedbl" unicode="&#x22;" horiz-adv-x="995"
             d="M16 1475h285l-51 -613h-187zM399 1475h283l-47 -613h-186z"/>
      <glyph glyph-name="numbersign" unicode="#" horiz-adv-x="831"
             d="M0 289l35 125h145l58 211h-148l35 125h145l80 292h148l-78 -292h117l75 292h150l-78 -292h145l-34 -125h-144l-55 -211h143l-32 -125h-146l-80 -289h-147l76 289h-115l-78 -289h-149l79 289h-147zM330 414h114l58 211h-117z"/>
      <glyph glyph-name="dollar" unicode="$" horiz-adv-x="831"
             d="M43 322h203q12 -92 26 -119q27 -45 107 -62v301q-170 45 -240.5 116t-70.5 194q0 289 311 309v98h72v-98q133 -10 217 -82q94 -84 98 -234h-199q-8 70 -14 86q-25 57 -102 66v-270q180 -68 219 -95q115 -78 114 -231q0 -297 -333 -328v-147h-72v145q-172 20 -248 90
q-88 82 -88 261zM262 778q0 -88 117 -133v250q-117 -4 -117 -117zM451 141q57 8 79 25q43 31 43 115q1 92 -122 137v-277z"/>
      <glyph glyph-name="percent" unicode="%" horiz-adv-x="1329"
             d="M57 788q0 106 74 181t180 75q104 0 179 -74.5t75 -181.5q0 -104 -74.5 -178.5t-179.5 -74.5q-106 0 -180 74.5t-74 178.5zM199 788q0 -45 32.5 -77.5t79.5 -32.5q45 0 79 32.5t34 77.5q0 47 -34 80t-79 33q-47 0 -79.5 -32.5t-32.5 -80.5zM291 -29l586 1069h153
l-584 -1069h-155zM770 254q0 106 75 180t179 74q106 0 180 -74t74 -180q0 -104 -74 -179t-180 -75q-104 0 -179 75t-75 179zM911 254q0 -45 34 -79t79 -34t79 34t34 79q0 47 -34 80t-79 33t-79 -33t-34 -80z"/>
      <glyph glyph-name="ampersand" unicode="&#x26;" horiz-adv-x="1087"
             d="M82 285q0 104 53 174q49 63 174 141q2 0 2 -2q-98 104 -98 223q0 123 86 191q76 59 201 59q98 0 172 -47q94 -63 94 -193q4 -160 -174 -264l147 -182q55 78 58 176h190q-12 -182 -127 -325l197 -236h-262l-72 88q-66 -57 -94 -72q-78 -43 -195 -43q-164 0 -264 103
q-88 90 -88 209zM297 291q0 -43 29 -82q39 -55 120 -55q90 0 166 71l-190 238q-125 -74 -125 -172zM412 827q0 -37 73 -129q96 66 97 131q0 82 -86 82q-84 0 -84 -84z"/>
      <glyph glyph-name="quotesingle" unicode="'" horiz-adv-x="497"
             d="M92 1475h285l-53 -613h-179z"/>
      <glyph glyph-name="parenleft" unicode="(" horiz-adv-x="681"
             d="M88 526q0 487 356 971l168 -2q-152 -274 -204 -453q-63 -209 -64 -497q0 -229 47 -424q61 -250 217 -535h-172q-348 473 -348 940z"/>
      <glyph glyph-name="parenright" unicode=")" horiz-adv-x="681"
             d="M14 -414q129 231 183 381q92 264 92 574q0 289 -78 534q-55 178 -188 422h225q348 -475 348 -940q0 -489 -360 -971h-222z"/>
      <glyph glyph-name="asterisk" unicode="*" horiz-adv-x="796"
             d="M45 1157l47 152l209 -68v244h176v-244l209 68l47 -152l-213 -65l142 -201l-132 -94l-139 188l-145 -188l-129 94l139 201z"/>
      <glyph glyph-name="plus" unicode="+" horiz-adv-x="872"
             d="M53 299v197h297v299h197v-299h297v-197h-297v-299h-197v299h-297z"/>
      <glyph glyph-name="comma" unicode="," horiz-adv-x="569"
             d="M113 0v307h317v-264q0 -170 -100 -287q-96 -109 -217 -106v110q80 23 116 64q55 57 64 176h-180z"/>
      <glyph glyph-name="hyphen" unicode="-" horiz-adv-x="681"
             d="M43 432v279h582v-279h-582z"/>
      <glyph glyph-name="period" unicode="." horiz-adv-x="569"
             d="M125 0v307h309v-307h-309z"/>
      <glyph glyph-name="slash" unicode="/" horiz-adv-x="415"
             d="M-90 0l426 1114h178l-426 -1114h-178z"/>
      <glyph glyph-name="zero" unicode="0" horiz-adv-x="849"
             d="M47 532q0 242 49 359q84 201 324 201q207 0 297 -146q80 -133 80 -416q0 -276 -82 -409q-88 -147 -293 -148q-205 0 -293 148q-82 130 -82 411zM272 532q0 -174 17 -245q33 -135 133 -135q76 0 108 69q39 86 39 309q0 240 -41 322q-31 59 -108 59q-82 0 -115 -75
q-33 -83 -33 -304z"/>
      <glyph glyph-name="one" unicode="1" horiz-adv-x="849"
             d="M100 745v150q154 6 207 35q74 37 92 155h183v-1085h-224v745h-258z"/>
      <glyph glyph-name="two" unicode="2" horiz-adv-x="849"
             d="M47 0q0 117 49 209q61 117 219 235l74 56q176 131 176 248q0 156 -145 155q-63 0 -94 -29q-47 -43 -54 -169h-215q12 385 355 385q154 0 254 -76q123 -92 122 -275q0 -193 -223 -352l-82 -59q-74 -53 -94 -70q-39 -33 -59 -63h461v-195h-744z"/>
      <glyph glyph-name="three" unicode="3" horiz-adv-x="849"
             d="M39 332h217q-2 -180 156 -180q70 0 108.5 45t38.5 118q0 82 -45 117q-53 41 -182 43h-6v156h12q111 2 154 35.5t43 109.5q0 135 -134 135q-145 0 -137 -170h-205q10 348 353 349q143 0 237 -70q109 -80 109 -227q0 -74 -37 -133.5t-94 -81.5q162 -59 161 -261
q0 -131 -75 -225q-98 -119 -299 -119q-352 0 -375 359z"/>
      <glyph glyph-name="four" unicode="4" horiz-adv-x="849"
             d="M39 229v193l391 655h250v-676h121v-172h-121v-229h-215v229h-426zM201 401h266v467z"/>
      <glyph glyph-name="five" unicode="5" horiz-adv-x="849"
             d="M39 291h219q29 -141 148 -141q154 0 153 192q0 193 -151 193q-98 0 -138 -74l-198 10l75 600h601v-184h-441l-39 -232q66 37 82 43q41 14 107 15q135 0 227 -82q104 -96 104 -273q0 -147 -79 -254q-100 -133 -301 -133q-158 0 -257.5 85t-111.5 235z"/>
      <glyph glyph-name="six" unicode="6" horiz-adv-x="849"
             d="M45 489q0 606 385 607q147 0 239.5 -76t102.5 -207h-219q6 23 -16 55q-31 47 -101 47q-84 0 -122 -69.5t-52 -227.5q78 86 207 87q135 0 227 -87q100 -96 101 -262q0 -141 -64 -239q-94 -145 -307 -146q-170 0 -270 123q-111 135 -111 395zM266 344q0 -74 33 -127
q43 -68 127 -67q145 0 145 186q0 193 -151 192q-66 0 -109 -43q-45 -51 -45 -141z"/>
      <glyph glyph-name="seven" unicode="7" horiz-adv-x="849"
             d="M37 874l2 197h768v-172q-174 -182 -283.5 -434t-103.5 -465h-230q4 221 127 489q115 250 254 385h-534z"/>
      <glyph glyph-name="eight" unicode="8" horiz-adv-x="849"
             d="M39 299q0 199 162 279q-125 82 -125 227q0 117 84 196q94 88 258 89q143 0 235 -68q106 -78 107 -219q0 -150 -127 -217q162 -92 162 -287q0 -133 -95 -225q-106 -102 -292 -103q-166 0 -267.5 87t-101.5 241zM268 317q0 -164 150 -163q150 0 149 163q0 164 -149 164
q-150 0 -150 -164zM287 780q0 -131 131 -131t131 129q0 135 -131 135t-131 -133z"/>
      <glyph glyph-name="nine" unicode="9" horiz-adv-x="849"
             d="M45 702q0 168 97.5 280t265.5 112q393 0 393 -551q0 -575 -402 -576q-133 0 -224 76t-107 207h219q16 -100 123 -100q158 0 168 292q-76 -88 -205 -88q-119 0 -209 70q-119 92 -119 278zM268 723q0 -188 154 -188q150 0 149 180q0 90 -41 143t-112 53q-150 0 -150 -188z
"/>
      <glyph glyph-name="colon" unicode=":" horiz-adv-x="692"
             d="M231 0v307h314v-307h-314zM231 741v303h314v-303h-314z"/>
      <glyph glyph-name="semicolon" unicode=";" horiz-adv-x="692"
             d="M231 0v307h320v-264q0 -172 -97.5 -283.5t-222.5 -109.5v110q80 23 115 60q53 55 66 180h-181zM231 741v303h314v-303h-314z"/>
      <glyph glyph-name="less" unicode="&#x3c;" horiz-adv-x="872"
             d="M16 301v193l861 327v-211l-605 -213l605 -213v-211z"/>
      <glyph glyph-name="equal" unicode="=" horiz-adv-x="1196"
             d="M72 172v272h1085v-272h-1085zM72 641v274h1085v-274h-1085z"/>
      <glyph glyph-name="greater" unicode="&#x3e;" horiz-adv-x="872"
             d="M16 -27v211l607 213l-607 213v211l861 -329v-191z"/>
      <glyph glyph-name="question" unicode="?" horiz-adv-x="921"
             d="M86 737q16 350 360 350q156 0 259 -65q131 -82 131 -250q0 -143 -158 -262l-49 -37q-63 -49 -64 -158h-203q4 127 24 173.5t95 101.5l54 39q72 53 71 131q0 143 -149 143q-68 0 -110 -46t-40 -120h-221zM356 0v217h226v-217h-226z"/>
      <glyph glyph-name="at" unicode="@" horiz-adv-x="1452"
             d="M143 530q0 250 183.5 416t451.5 166q209 0 359 -102q182 -123 182 -357q0 -158 -98.5 -280.5t-233.5 -122.5q-61 0 -101 33.5t-40 83.5q0 18 2 22q-74 -139 -209 -139q-88 0 -143 59q-61 66 -62 185q0 123 78 233q92 129 231 129q129 0 160 -115l27 88h141l-94 -317
q-20 -72 -21 -88q0 -61 62 -62q59 0 115 66q72 86 71 234q0 180 -139 270q-113 72 -272 72q-213 0 -365 -119q-170 -133 -170 -359q0 -209 156 -333q143 -115 348 -115q215 0 409 141l56 -84q-221 -166 -477 -166q-313 0 -478 193q-129 153 -129 368zM596 477
q0 -117 90 -117q66 0 121 102.5t55 201.5q0 88 -84 88q-76 0 -133 -99q-49 -88 -49 -176z"/>
      <glyph glyph-name="A" unicode="A" horiz-adv-x="1087"
             d="M39 0l383 1077h262l381 -1077h-252l-65 211h-396l-67 -211h-246zM416 403h268l-133 418z"/>
      <glyph glyph-name="B" unicode="B" horiz-adv-x="1087"
             d="M119 0v1077h493q367 0 367 -282q0 -147 -129 -217q162 -57 162 -252q0 -326 -402 -326h-491zM340 193h260q178 0 178 149q0 129 -172 129h-266v-278zM340 655h264q152 0 152 117q0 111 -183 111h-233v-228z"/>
      <glyph glyph-name="C" unicode="C" horiz-adv-x="1079"
             d="M68 528q0 279 143 430q133 137 360 138q215 0 340 -121q109 -104 115 -260h-231q-35 182 -234 182q-115 0 -182 -90q-72 -96 -72 -281q0 -182 76 -274q68 -82 178 -82q197 0 232 192h229q-10 -147 -111 -256q-125 -137 -344 -137q-221 0 -354 135q-145 150 -145 424z"/>
      <glyph glyph-name="D" unicode="D" horiz-adv-x="1079"
             d="M113 0v1077h446q217 0 338 -123q129 -131 129 -389q0 -266 -119 -415.5t-327 -149.5h-467zM338 193h203q247 0 247 355q0 189 -59 265q-55 70 -188 70h-203v-690z"/>
      <glyph glyph-name="E" unicode="E" horiz-adv-x="997"
             d="M121 0v1077h788v-198h-561v-217h514v-195h-514v-268h590v-199h-817z"/>
      <glyph glyph-name="F" unicode="F" horiz-adv-x="913"
             d="M113 0v1075h764v-196h-533v-240h467v-190h-467v-449h-231z"/>
      <glyph glyph-name="G" unicode="G" horiz-adv-x="1163"
             d="M61 528q0 258 142.5 417t400.5 159q188 0 316.5 -106.5t140.5 -258.5h-230q-10 76 -76.5 124t-164.5 48q-131 0 -209 -96q-82 -102 -82 -291q0 -176 84 -270q78 -86 207 -86q223 0 266 223h-240v187h447v-578h-154l-20 135q-109 -164 -334 -164q-213 0 -353.5 152.5
t-140.5 404.5z"/>
      <glyph glyph-name="H" unicode="H" horiz-adv-x="1079"
             d="M113 0v1077h229v-409h406v409h233v-1077h-233v479h-406v-479h-229z"/>
      <glyph glyph-name="I" unicode="I" horiz-adv-x="415"
             d="M92 0v1077h232v-1077h-232z"/>
      <glyph glyph-name="J" unicode="J" horiz-adv-x="839"
             d="M35 395v19h219v-19q0 -139 28.5 -185t100.5 -46q59 0 87 31.5t28 123.5v758h231v-747q0 -356 -336 -357q-188 0 -273 95.5t-85 326.5z"/>
      <glyph glyph-name="K" unicode="K" horiz-adv-x="1087"
             d="M119 0v1077h229v-438l402 438h301l-439 -446l463 -631h-299l-330 463l-98 -105v-358h-229z"/>
      <glyph glyph-name="L" unicode="L" horiz-adv-x="921"
             d="M113 0v1077h233v-878h533v-199h-766z"/>
      <glyph glyph-name="M" unicode="M" horiz-adv-x="1245"
             d="M111 0v1077h338l184 -841l184 841h336v-1077h-219v737q0 27 2 76v90l-193 -903h-225l-192 903q0 -35 2 -86v-80v-737h-217z"/>
      <glyph glyph-name="N" unicode="N" horiz-adv-x="1079"
             d="M111 0v1077h241l418 -741v741h215v-1077h-229l-428 754v-754h-217z"/>
      <glyph glyph-name="O" unicode="O" horiz-adv-x="1163"
             d="M74 541q0 272 145 424q139 145 373 145q231 0 369 -141q143 -152 143 -430q0 -270 -137.5 -420t-374.5 -150q-240 0 -379 151t-139 421zM307 541q0 -186 84 -285q74 -90 199 -90t201 92q81 99 81 277q0 188 -81 286q-76 90 -201 90q-127 0 -203 -90q-80 -98 -80 -280z
"/>
      <glyph glyph-name="P" unicode="P" horiz-adv-x="997"
             d="M119 0v1077h467q358 0 358 -344q0 -352 -377 -352h-217v-381h-231zM350 573h201q162 0 162 158q0 152 -162 152h-201v-310z"/>
      <glyph glyph-name="Q" unicode="Q" horiz-adv-x="1163"
             d="M74 541q0 256 139 412.5t381 156.5q229 0 373 -156q137 -156 137 -397q0 -264 -113 -393l121 -115l-123 -125l-127 121q-121 -76 -272 -76q-236 0 -376 155t-140 417zM307 541q0 -182 77 -278.5t204 -96.5q72 0 123 29l-111 104l121 125l106 -105q45 100 45 220v15
q0 357 -280 357h-2q-131 0 -207 -92q-76 -98 -76 -278z"/>
      <glyph glyph-name="R" unicode="R" horiz-adv-x="1079"
             d="M119 0v1077h530q172 0 266 -90q86 -82 86 -219q0 -199 -167 -256q76 -29 108 -86q29 -51 29 -147v-25v-64v-26q0 -108 30 -164h-239q-23 57 -23 154l-2 92q-2 100 -35.5 136t-134.5 36h-221v-418h-227zM346 600h246q176 0 176 135q0 147 -172 148h-250v-283z"/>
      <glyph glyph-name="S" unicode="S" horiz-adv-x="997"
             d="M61 330h224q18 -168 219 -168q219 0 219 137q0 43 -31 68q-41 33 -162 61l-170 39q-284 63 -284 305q0 147 104 240q113 98 314 98q178 0 293.5 -97.5t123.5 -256.5h-223q-10 159 -209 159h-2q-86 0 -136 -35.5t-50 -91.5q0 -51 37 -77.5t147 -51.5l191 -43
q280 -66 280 -299q0 -145 -106 -239q-117 -106 -326 -107q-207 0 -330 92.5t-123 266.5z"/>
      <glyph glyph-name="T" unicode="T" horiz-adv-x="913"
             d="M25 879v198h870v-198h-315v-879h-238v879h-317z"/>
      <glyph glyph-name="U" unicode="U" horiz-adv-x="1079"
             d="M113 412v665h237v-663q0 -135 47 -190.5t152 -55.5q106 0 150 57.5t44 188.5v663h238v-665q0 -223 -103.5 -332t-330.5 -109q-217 0 -322 101q-113 106 -112 340z"/>
      <glyph glyph-name="V" unicode="V" horiz-adv-x="997"
             d="M35 1077h248l225 -809l231 809h238l-365 -1077h-217z"/>
      <glyph glyph-name="W" unicode="W" horiz-adv-x="1411"
             d="M23 1077h245l142 -610l28 -170l29 166l115 614h245l152 -780l33 166l141 614h236l-304 -1077h-223l-123 616l-34 218l-39 -218l-123 -616h-213z"/>
      <glyph glyph-name="X" unicode="X" horiz-adv-x="997"
             d="M23 0l344 549l-328 528h278l183 -344l190 344h268l-325 -518l348 -559h-285l-194 358l-209 -358h-270z"/>
      <glyph glyph-name="Y" unicode="Y" horiz-adv-x="997"
             d="M25 1077h274l215 -465l205 465h264l-354 -676v-401h-236v401z"/>
      <glyph glyph-name="Z" unicode="Z" horiz-adv-x="913"
             d="M37 0v197l547 682h-535v198h823v-186l-553 -694h555v-197h-837z"/>
      <glyph glyph-name="bracketleft" unicode="[" horiz-adv-x="692"
             d="M129 -391v1882h514v-217h-235v-1452h235v-213h-514z"/>
      <glyph glyph-name="backslash" unicode="\" horiz-adv-x="569"
             d="M-117 1526h244l573 -1526h-245z"/>
      <glyph glyph-name="bracketright" unicode="]" horiz-adv-x="692"
             d="M47 -178h234v1458h-234v211h514v-1882h-514v213z"/>
      <glyph glyph-name="asciicircum" unicode="^" horiz-adv-x="888"
             d="M102 430l271 647h168l270 -647h-188l-166 406l-164 -406h-191z"/>
      <glyph glyph-name="underscore" unicode="_" horiz-adv-x="1138"
             d="M0 -156h1139v-100h-1139v100z"/>
      <glyph glyph-name="grave" unicode="`" horiz-adv-x="681"
             d="M-49 1540h325l193 -301h-211z"/>
      <glyph glyph-name="a" unicode="a"
             d="M63 516q0 285 132 447q126 155 339 155h3q215 0 309 -190v162h291v-1090h-289v152q-113 -186 -332 -187q-186 0 -315 146q-138 155 -138 405zM367 541q0 -326 235 -326q106 0 170 74q72 82 72 239q0 158 -63.5 245t-178.5 87q-109 0 -172 -81.5t-63 -237.5z"/>
      <glyph glyph-name="b" unicode="b"
             d="M123 0v1473h297v-525q113 168 313 168q203 0 331 -149.5t128 -407.5q0 -285 -133 -442q-123 -145 -322 -146q-113 0 -184.5 37t-138.5 129v-137h-291zM410 528q0 -145 65.5 -229t179.5 -84q98 0 162 79t64 232q0 330 -236 330q-235 0 -235 -328z"/>
      <glyph glyph-name="c" unicode="c" horiz-adv-x="1150"
             d="M74 524q0 272 134 433t382 161q227 0 349 -100t146 -322h-303q-27 172 -184 172q-217 0 -217 -336q0 -323 214 -323h1q174 0 184 188h303q-12 -178 -143 -303q-141 -133 -352 -133q-250 0 -382 146.5t-132 416.5z"/>
      <glyph glyph-name="d" unicode="d"
             d="M63 516q0 285 132 447q126 155 339 155h3q199 0 299 -164v519h301v-1473h-289v152q-113 -186 -332 -187q-186 0 -315 146q-138 155 -138 405zM367 541q0 -326 235 -326q106 0 170 74q72 82 72 239q0 158 -63.5 245t-178.5 87q-109 0 -172 -81.5t-63 -237.5z"/>
      <glyph glyph-name="e" unicode="e" horiz-adv-x="1138"
             d="M45 537q0 270 145 430q140 153 368 153h3q521 0 521 -611q0 -22 -1 -44h-741q2 -119 63.5 -190.5t178.5 -71.5q147 0 192 112h305q-14 -150 -141 -247q-139 -104 -358 -105q-219 0 -363 127q-172 154 -172 447zM348 657h428q-10 221 -213 222q-184 -1 -215 -222z"/>
      <glyph glyph-name="f" unicode="f" horiz-adv-x="692"
             d="M20 874v207h156v62q0 188 74 264q82 82 293 82q68 0 110 -6v-238q-25 4 -80 4q-98 0 -98 -78v-90h189v-207h-189v-874h-295v874h-160z"/>
      <glyph glyph-name="g" unicode="g"
             d="M66 545q0 264 131 422q128 151 332 151h3q211 0 310 -184v158h288v-1039q0 -258 -122 -375q-127 -123 -422 -124h-11q-191 0 -315 69q-152 84 -168 260h322q29 -104 190 -104q127 0 179.5 68.5t52.5 244.5v76q-45 -80 -95 -117q-80 -55 -213 -55q-211 0 -336.5 145.5
t-125.5 403.5zM373 545q0 -133 60.5 -217t174.5 -84q231 0 232 309q0 154 -68 233q-61 74 -168 74q-231 0 -231 -315z"/>
      <glyph glyph-name="h" unicode="h"
             d="M135 0v1468h295v-518q111 170 311 170q387 0 387 -413v-707h-301v662q0 212 -172 212h-2q-223 0 -223 -288v-586h-295z"/>
      <glyph glyph-name="i" unicode="i" horiz-adv-x="581"
             d="M137 0v1092h299v-1092h-299zM137 1217v268h299v-268h-299z"/>
      <glyph glyph-name="j" unicode="j" horiz-adv-x="581"
             d="M12 -203q37 -4 56 -4q80 0 79 96v1198h295v-1200q0 -154 -41 -217q-69 -110 -278 -110h-4h-53q-37 2 -54 2v235zM147 1217v268h295v-268h-295z"/>
      <glyph glyph-name="k" unicode="k" horiz-adv-x="1150"
             d="M129 0v1468h291v-786l346 405h364l-378 -419l393 -668h-357l-251 459l-117 -123v-336h-291z"/>
      <glyph glyph-name="l" unicode="l" horiz-adv-x="606"
             d="M139 266v1209h295v-1166q0 -102 80 -102q43 0 55 2v-221q-45 -2 -135 -2q-295 0 -295 280z"/>
      <glyph glyph-name="m" unicode="m" horiz-adv-x="1832"
             d="M129 0v1090h287v-158q111 184 315 184q217 0 295 -188q106 188 338 188q143 0 233 -86q104 -100 105 -299v-731h-301v692q0 174 -160 174q-178 0 -178 -217v-649h-297v645q0 217 -160 217q-178 0 -178 -205v-657h-299z"/>
      <glyph glyph-name="n" unicode="n"
             d="M135 0v1090h285v-158q123 186 325 186q387 0 388 -381v-737h-304v662q0 210 -180 210h-2q-217 0 -217 -286v-586h-295z"/>
      <glyph glyph-name="o" unicode="o"
             d="M66 545q0 260 148 420.5t415 160.5q268 0 415.5 -156.5t147.5 -428.5q0 -260 -141 -416q-150 -164 -420 -164q-262 0 -413.5 160t-151.5 424zM375 545q0 -336 254 -336q119 0 186.5 87t67.5 245q0 166 -69 252t-185 86q-254 0 -254 -334z"/>
      <glyph glyph-name="p" unicode="p"
             d="M125 -428v1520h283v-162q121 186 325 186q199 0 324 -143q133 -152 133 -414q0 -281 -128 -435.5t-337 -154.5q-195 0 -307 172v-569h-293zM408 522q0 -305 239 -305q109 0 173.5 86t64.5 242q0 143 -60.5 227t-177.5 84q-239 0 -239 -334z"/>
      <glyph glyph-name="q" unicode="q"
             d="M59 522q0 256 129 427t334 171q113 0 186.5 -46t137.5 -148v164h282v-1522h-290v569q-80 -172 -322 -172q-178 0 -307 133q-150 154 -150 424zM367 535q0 -315 235 -316q244 0 244 328q0 152 -65.5 232.5t-178.5 80.5h-1q-234 0 -234 -325z"/>
      <glyph glyph-name="r" unicode="r" horiz-adv-x="808"
             d="M129 0v1092h283v-191q68 123 147 172q72 45 178 45q25 0 37 -2v-303q-49 6 -84 6q-141 0 -201.5 -71.5t-60.5 -237.5v-510h-299z"/>
      <glyph glyph-name="s" unicode="s" horiz-adv-x="1150"
             d="M66 350h301q10 -84 53 -119q53 -43 176 -43q176 0 176 95q0 45 -27.5 65.5t-119.5 42.5l-187 47q-186 47 -258 109q-82 72 -82 207q0 145 111 250q124 118 344 118h4q451 0 485 -364h-297q-14 141 -184 141q-168 0 -168 -92q0 -39 32 -59.5t126 -42.5l186 -46
q334 -80 334 -327q0 -168 -121 -264q-129 -104 -377 -105q-502 0 -507 387z"/>
      <glyph glyph-name="t" unicode="t" horiz-adv-x="692"
             d="M20 872v207h152v307h293v-307h178v-207h-178v-563q0 -70 31 -90q18 -12 92 -12q43 0 55 2v-221q-45 -2 -135 -2q-184 0 -260 48t-76 173v665h-152z"/>
      <glyph glyph-name="u" unicode="u"
             d="M125 391v701h303v-654q0 -119 39 -169t133 -50q219 0 219 285v588h303v-1092h-291l3 154q-125 -178 -334 -179q-375 0 -375 416z"/>
      <glyph glyph-name="v" unicode="v" horiz-adv-x="1150"
             d="M29 1092h329l222 -797l225 797h315l-389 -1092h-311z"/>
      <glyph glyph-name="w" unicode="w" horiz-adv-x="1605"
             d="M14 1092h316l166 -777l153 777h297l162 -779l166 779h307l-315 -1092h-303l-168 791l-168 -791h-308z"/>
      <glyph glyph-name="x" unicode="x" horiz-adv-x="1150"
             d="M29 0l370 553l-354 537h358l177 -310l172 310h348l-357 -533l371 -557h-366l-181 319l-180 -319h-358z"/>
      <glyph glyph-name="y" unicode="y" horiz-adv-x="1150"
             d="M20 1092h328l234 -797l219 797h313l-399 -1147q-88 -252 -150 -316q-69 -69 -245 -69h-5h-77q-41 2 -56 2v235q27 -4 68 -4q125 0 156 94l18 58z"/>
      <glyph glyph-name="z" unicode="z" horiz-adv-x="1024"
             d="M31 0v229l551 623h-512v240h886v-244l-544 -608h565v-240h-946z"/>
      <glyph glyph-name="braceleft" unicode="{" horiz-adv-x="806"
             d="M4 483v121q100 41 139 82q63 68 64 201v276q0 336 430 334v-162q-84 -20 -115 -53q-37 -41 -37 -143v-246q0 -117 -30 -182q-49 -102 -193 -170q125 -53 174 -126t49 -198v-264q0 -106 56 -156q27 -25 96 -47v-164q-430 4 -430 320v323q0 193 -203 254z"/>
      <glyph glyph-name="bar" unicode="|" horiz-adv-x="577"
             d="M102 0v1489h273v-1489h-273z"/>
      <glyph glyph-name="braceright" unicode="}" horiz-adv-x="806"
             d="M45 -250q68 10 94 33q55 47 56 170v264q0 113 32 172q47 84 189 152q-113 57 -162 127q-59 84 -59 225v246q0 80 -11 104q-29 63 -139 92v162q430 2 430 -334v-276q0 -123 42 -179.5t161 -103.5v-121q-98 -33 -137 -71q-66 -61 -66 -183v-323q0 -309 -430 -320v164z"/>
      <glyph glyph-name="asciitilde" unicode="~" horiz-adv-x="1196"
             d="M2 303q27 195 100 315q90 143 236 144q90 0 180 -35l234 -90q100 -29 135 -29q117 0 160 174h176q-35 -229 -129 -348q-86 -111 -209 -110q-88 0 -203 45l-209 82q-68 27 -129 26q-123 0 -164 -174h-178z"/>
      <glyph glyph-name="uni00A0" unicode="&#xa0;" horiz-adv-x="1024"
      />
      <glyph glyph-name="exclamdown" unicode="&#xa1;" horiz-adv-x="681"
             d="M225 -20l82 694h154l88 -694v-363h-324v363zM231 791v296h310v-296h-310z"/>
      <glyph glyph-name="cent" unicode="&#xa2;" horiz-adv-x="1138"
             d="M66 528q0 242 110 402q133 188 387 188q78 0 115 -10l49 180h109l-60 -201q274 -92 303 -389h-303q-25 98 -69 138l-172 -621q31 -8 53 -8q154 0 184 190h303q-23 -438 -516 -438q-57 0 -94 6l-59 -211h-115l74 244q-125 45 -205 170q-94 147 -94 360zM375 535
q0 -197 69 -267l164 598q-4 0 -14 2h-16q-88 0 -145.5 -89.5t-57.5 -243.5z"/>
      <glyph glyph-name="sterling" unicode="&#xa3;" horiz-adv-x="831"
             d="M47 131q61 33 113.5 95.5t52.5 113.5q0 49 -35 139h-127v82h80q-66 121 -65 223q0 106 77 189q98 102 281 102q145 0 238 -71q117 -90 124 -275h-202q-18 172 -160 172q-59 0 -100 -37t-41 -96q0 -49 73 -207h207v-82h-174q4 -61 4 -84q0 -66 -28.5 -110.5t-118.5 -126.5
q117 37 170 37t112 -21q45 -14 72 -14q61 0 150 53l59 -170q-111 -70 -234 -70q-59 0 -157 35q-80 29 -129 29q-41 0 -162 -55z"/>
      <glyph glyph-name="yen" unicode="&#xa5;" horiz-adv-x="831"
             d="M-16 1047h258l186 -451l176 451h246l-164 -347h100v-100h-149l-76 -158h201v-98h-230v-344h-221v344h-227v98h201l-78 158h-154v100h105z"/>
      <glyph glyph-name="section" unicode="&#xa7;" horiz-adv-x="831"
             d="M47 416q0 145 137 215q-78 51 -78 178q0 102 68 176q82 92 240 92q274 0 303 -274h-195q-18 109 -121 108q-100 0 -100 -84q0 -31 19.5 -49t93.5 -49l118 -53q246 -109 246 -262q0 -143 -141 -215q49 -47 63 -68q33 -49 33 -125q0 -143 -108 -223q-88 -68 -207 -68
q-303 0 -330 281h205q18 -115 129 -115q41 0 71.5 26.5t30.5 67.5q0 61 -118 121l-123 60q-121 59 -166 100q-70 66 -70 160zM229 471q0 -53 97 -102l202 -101q61 27 62 92q0 47 -82 89l-219 108q-60 -29 -60 -86z"/>
      <glyph glyph-name="dieresis" unicode="&#xa8;" horiz-adv-x="681"
             d="M-43 1257v240h266v-240h-266zM362 1257v240h271v-240h-271z"/>
      <glyph glyph-name="copyright" unicode="&#xa9;" horiz-adv-x="1101"
             d="M18 539q0 207 136 362q152 176 405 176q205 0 363 -141q174 -156 174 -397q0 -203 -125 -357q-150 -182 -412 -182q-205 0 -358 127q-183 150 -183 412zM113 539q0 -182 129 -314.5t317 -132.5q178 0 309 129t131 318q0 164 -112 295q-127 150 -328 149q-164 0 -295 -111
q-151 -126 -151 -333zM268 537q0 119 58 204q76 115 233 115q229 0 275 -235l-142 2q-23 106 -123 106q-133 0 -133 -199q0 -184 142 -184q96 0 114 103h137q-41 -231 -260 -232q-109 0 -192 70q-109 88 -109 250z"/>
      <glyph glyph-name="ordfeminine" unicode="&#xaa;" horiz-adv-x="1138"
             d="M57 293q0 139 66 217q94 113 346 145l78 11q135 18 182 32v70q0 113 -176 113q-88 0 -126 -35t-52 -109h-285q29 381 471 381q463 0 463 -344v-487q0 -227 27 -287h-287q-16 43 -27 127q-61 -66 -102 -92q-102 -68 -238 -70q-133 -2 -225 68q-115 86 -115 260zM352 313
q0 -131 133 -135q242 -8 242 248v84q-12 -4 -123 -27l-59 -12q-96 -20 -125 -35q-68 -37 -68 -123z"/>
      <glyph glyph-name="guillemotleft" unicode="&#xab;" horiz-adv-x="1138"
             d="M172 442v242l344 299v-244l-201 -176l201 -174v-244zM618 442v242l345 299v-244l-203 -176l203 -174v-244z"/>
      <glyph glyph-name="uni00AD" unicode="&#xad;" horiz-adv-x="681"
             d="M43 432v279h582v-279h-582z"/>
      <glyph glyph-name="registered" unicode="&#xae;" horiz-adv-x="1101"
             d="M18 539q0 223 157 380.5t384 157.5q205 0 363 -141q174 -156 174 -397q0 -203 -125 -357q-150 -182 -412 -182q-205 0 -358 127q-183 150 -183 412zM113 539q0 -182 128 -314.5t318 -132.5q178 0 309 129t131 318q0 164 -112 295q-127 150 -328 149q-172 0 -303 -117
q-143 -126 -143 -327zM319 240v596h269q221 0 221 -174q0 -127 -145 -152q137 -25 137 -170v-55q0 -31 10 -45h-154q0 2 -6 57l-4 25q-16 125 -100 124h-66v-206h-162zM481 559h60q111 0 110 92q0 76 -137 76h-33v-168z"/>
      <glyph glyph-name="macron" unicode="&#xaf;" horiz-adv-x="681"
             d="M-63 1303v155h716v-155h-716z"/>
      <glyph glyph-name="degree" unicode="&#xb0;" horiz-adv-x="819"
             d="M92 1139q0 121 78 213q92 111 248 110q115 0 211 -80q112 -93 112 -245q0 -119 -75 -213q-92 -113 -248 -113q-111 0 -203 68q-123 90 -123 260zM260 1137q0 -66 47.5 -111t110.5 -45q66 0 111.5 46t45.5 110q0 59 -34 104q-43 55 -123 55q-57 0 -105 -39
q-53 -47 -53 -120z"/>
      <glyph glyph-name="acute" unicode="&#xb4;" horiz-adv-x="681"
             d="M123 1239l190 301h330l-309 -301h-211z"/>
      <glyph glyph-name="paragraph" unicode="&#xb6;" horiz-adv-x="833"
             d="M-49 707q0 166 93 268t261 102h481v-131h-92v-1216h-151v1216h-140v-1216h-151v630q-135 -2 -215 86q-86 93 -86 261z"/>
      <glyph glyph-name="periodcentered" unicode="&#xb7;" horiz-adv-x="569"
             d="M109 721q0 57 30 102q45 68 140 68q61 0 110 -37q64 -47 64 -133q0 -70 -45 -117q-47 -53 -127 -53q-63 0 -111 33q-61 45 -61 137z"/>
      <glyph glyph-name="cedilla" unicode="&#xb8;" horiz-adv-x="681"
             d="M16 -104l215 104h109l-86 -131q41 12 78 12q178 0 178 -153q0 -78 -55 -131q-72 -70 -217 -70q-87 0 -218 55l39 86q100 -35 160 -35q111 0 111 80q0 76 -90 76q-25 0 -84 -16z"/>
      <glyph glyph-name="guillemotright" unicode="&#xbb;" horiz-adv-x="1138"
             d="M180 145v244l205 174l-205 176v244l344 -299v-242zM627 145v244l202 174l-202 176v244l342 -299v-242z"/>
      <glyph glyph-name="questiondown" unicode="&#xbf;" horiz-adv-x="1251"
             d="M100 29q0 104 45 184q49 88 170 176l68 49q88 63 88 217h281q-8 -174 -35 -236.5t-131 -142.5l-70 -53q-98 -76 -98 -176q0 -197 200 -197q96 0 152.5 62.5t56.5 165.5h299q-10 -219 -122 -342q-127 -137 -371 -137q-213 0 -354 88q-178 111 -179 342zM451 791v296h309
v-296h-309z"/>
      <glyph glyph-name="Agrave" unicode="&#xc0;" horiz-adv-x="1087"
             d="M39 0l383 1077h262l381 -1077h-252l-65 211h-396l-67 -211h-246zM309 1397h238l141 -219h-153zM416 403h268l-133 418z"/>
      <glyph glyph-name="Aacute" unicode="&#xc1;" horiz-adv-x="1488"
             d="M39 0l383 1077h262l381 -1077h-252l-65 211h-396l-67 -211h-246zM416 403h268l-133 418zM592 1612l190 301h330l-309 -301h-211z"/>
      <glyph glyph-name="Acircumflex" unicode="&#xc2;" horiz-adv-x="1488"
             d="M39 0l383 1077h262l381 -1077h-252l-65 211h-396l-67 -211h-246zM399 1612l238 301h262l238 -301h-240l-129 166l-131 -166h-238zM416 403h268l-133 418z"/>
      <glyph glyph-name="Atilde" unicode="&#xc3;" horiz-adv-x="1087"
             d="M39 0l383 1077h262l381 -1077h-252l-65 211h-396l-67 -211h-246zM283 1188q39 182 184 182q35 0 102 -24q80 -31 99 -31q31 0 45 16q10 10 22 47h101q-31 -180 -168 -180q-53 0 -146 35q-43 16 -71 16q-55 0 -70 -61h-98zM416 403h268l-133 418z"/>
      <glyph glyph-name="Adieresis" unicode="&#xc4;" horiz-adv-x="1087"
             d="M39 0l383 1077h262l381 -1077h-252l-65 211h-396l-67 -211h-246zM311 1190v174h195v-174h-195zM416 403h268l-133 418zM606 1190v174h199v-174h-199z"/>
      <glyph glyph-name="Aring" unicode="&#xc5;" horiz-adv-x="1087"
             d="M39 0l383 1077h262l381 -1077h-252l-65 211h-396l-67 -211h-246zM395 1327q0 61 43 110.5t117 49.5q59 0 107 -39q53 -47 53 -121q0 -61 -39 -106q-45 -53 -121 -54q-61 0 -106 39q-54 43 -54 121zM416 403h268l-133 418zM469 1327q0 -37 26.5 -60.5t59.5 -23.5
t58.5 23.5t25.5 60.5q0 88 -84 88q-37 0 -61.5 -25.5t-24.5 -62.5z"/>
      <glyph glyph-name="AE" unicode="&#xc6;" horiz-adv-x="1495"
             d="M14 0l387 1071h1022v-192h-551v-220h494v-192h-494v-270h562v-197h-789v219h-317l-74 -219h-240zM389 401h256v482h-94z"/>
      <glyph glyph-name="Ccedilla" unicode="&#xc7;" horiz-adv-x="1079"
             d="M68 528q0 309 165 455q127 113 318 113q242 0 371 -140q100 -106 104 -241h-231q-27 86 -64 125q-57 57 -170 57q-106 0 -172 -76q-82 -96 -82 -295q0 -174 69.5 -265t184.5 -91q96 0 152 49q49 43 80 143h229q-29 -162 -137 -272q-121 -121 -295 -121l-45 -65
q45 10 55 10q131 0 131 -113q0 -57 -41 -96q-51 -51 -158 -51q-61 0 -157 41l26 63q80 -27 117 -26q82 0 82 59q0 55 -68 55q-29 0 -61 -12l-33 27l68 108q-170 0 -297 142q-141 157 -141 417z"/>
      <glyph glyph-name="Egrave" unicode="&#xc8;" horiz-adv-x="1366"
             d="M121 0v1077h788v-198h-561v-217h514v-195h-514v-268h590v-199h-817zM457 1913h325l193 -301h-211z"/>
      <glyph glyph-name="Eacute" unicode="&#xc9;" horiz-adv-x="997"
             d="M121 0v1077h788v-198h-561v-217h514v-195h-514v-268h590v-199h-817zM455 1178l139 219h240l-226 -219h-153z"/>
      <glyph glyph-name="Ecircumflex" unicode="&#xca;" horiz-adv-x="1366"
             d="M121 0v1077h788v-198h-561v-217h514v-195h-514v-268h590v-199h-817zM432 1612l238 301h262l238 -301h-240l-129 166l-131 -166h-238z"/>
      <glyph glyph-name="Edieresis" unicode="&#xcb;" horiz-adv-x="1366"
             d="M121 0v1077h788v-198h-561v-217h514v-195h-514v-268h590v-199h-817zM457 1630v240h266v-240h-266zM862 1630v240h271v-240h-271z"/>
      <glyph glyph-name="Igrave" unicode="&#xcc;" horiz-adv-x="569"
             d="M-47 1913h325l193 -301h-211zM92 0v1077h232v-1077h-232z"/>
      <glyph glyph-name="Iacute" unicode="&#xcd;" horiz-adv-x="569"
             d="M92 0v1077h232v-1077h-232zM121 1612l190 301h330l-309 -301h-211z"/>
      <glyph glyph-name="Icircumflex" unicode="&#xce;" horiz-adv-x="569"
             d="M-90 1612l238 301h262l238 -301h-240l-129 166l-131 -166h-238zM92 0v1077h232v-1077h-232z"/>
      <glyph glyph-name="Idieresis" unicode="&#xcf;" horiz-adv-x="569"
             d="M-55 1630v240h266v-240h-266zM92 0v1077h232v-1077h-232zM350 1630v240h271v-240h-271z"/>
      <glyph glyph-name="Ntilde" unicode="&#xd1;" horiz-adv-x="1079"
             d="M111 0v1077h241l418 -741v741h215v-1077h-229l-428 754v-754h-217zM313 1188q39 182 183 182q37 0 104 -24q80 -31 96 -31q33 0 47 16q8 10 23 47h100q-33 -180 -170 -180q-53 0 -143 35q-43 16 -74 16q-55 0 -67 -61h-99z"/>
      <glyph glyph-name="Ograve" unicode="&#xd2;" horiz-adv-x="1593"
             d="M74 541q0 272 145 424q139 145 373 145q231 0 369 -141q143 -152 143 -430q0 -270 -137.5 -420t-374.5 -150q-240 0 -379 151t-139 421zM307 541q0 -186 84 -285q74 -90 199 -90t201 92q82 100 81 281q0 184 -81 282q-76 90 -201 90q-127 0 -203 -90q-80 -98 -80 -280z
M535 1952h325l193 -301h-211z"/>
      <glyph glyph-name="Oacute" unicode="&#xd3;" horiz-adv-x="1593"
             d="M74 541q0 272 145 424q139 145 373 145q231 0 369 -141q143 -152 143 -430q0 -270 -137.5 -420t-374.5 -150q-240 0 -379 151t-139 421zM307 541q0 -186 84 -285q74 -90 199 -90t201 92q82 100 81 281q0 184 -81 282q-76 90 -201 90q-127 0 -203 -90q-80 -98 -80 -280z
M701 1651l190 301h330l-309 -301h-211z"/>
      <glyph glyph-name="Ocircumflex" unicode="&#xd4;" horiz-adv-x="1593"
             d="M74 541q0 272 145 424q139 145 373 145q231 0 369 -141q143 -152 143 -430q0 -270 -137.5 -420t-374.5 -150q-240 0 -379 151t-139 421zM307 541q0 -186 84 -285q74 -90 199 -90t201 92q82 100 81 281q0 184 -81 282q-76 90 -201 90q-127 0 -203 -90q-80 -98 -80 -280z
M510 1651l238 301h262l238 -301h-240l-129 166l-131 -166h-238z"/>
      <glyph glyph-name="Otilde" unicode="&#xd5;" horiz-adv-x="1163"
             d="M74 541q0 272 145 424q139 145 373 145q231 0 369 -141q143 -152 143 -430q0 -270 -137.5 -420t-374.5 -150q-240 0 -379 151t-139 421zM307 541q0 -186 84 -285q74 -90 199 -90t201 92q82 100 81 281q0 184 -81 282q-76 90 -201 90q-127 0 -203 -90q-80 -98 -80 -280z
M362 1214q41 184 185 185q35 0 104 -25q78 -31 97 -31q33 0 45 17q10 10 24 47h98q-31 -180 -167 -180q-53 0 -144 33q-43 16 -74 16q-55 0 -67 -62h-101z"/>
      <glyph glyph-name="Odieresis" unicode="&#xd6;" horiz-adv-x="1163"
             d="M74 541q0 272 145 424q139 145 373 145q231 0 369 -141q143 -152 143 -430q0 -270 -137.5 -420t-374.5 -150q-240 0 -379 151t-139 421zM307 541q0 -186 84 -285q74 -90 199 -90t201 92q82 100 81 281q0 184 -81 282q-76 90 -201 90q-127 0 -203 -90q-80 -98 -80 -280z
M391 1219v174h193v-174h-193zM686 1219v174h197v-174h-197z"/>
      <glyph glyph-name="Oslash" unicode="&#xd8;" horiz-adv-x="1163"
             d="M43 2l141 154q-111 147 -110 385q0 272 145 424q139 145 373 145q215 0 346 -121q37 37 131 141l64 -61l-134 -147q104 -147 105 -383q0 -270 -137.5 -420t-374.5 -150q-213 0 -346 121l-142 -153zM307 541q0 -123 37 -209l444 489q-74 90 -198 90q-127 0 -203 -90
q-80 -98 -80 -280zM393 252q76 -86 197 -86q125 0 201 92q82 100 81 281q1 116 -34 204z"/>
      <glyph glyph-name="Ugrave" unicode="&#xd9;" horiz-adv-x="1478"
             d="M113 412v665h237v-663q0 -135 47 -190.5t152 -55.5q106 0 150 57.5t44 188.5v663h238v-665q0 -223 -103.5 -332t-330.5 -109q-217 0 -322 101q-113 106 -112 340zM488 1913h325l193 -301h-211z"/>
      <glyph glyph-name="Uacute" unicode="&#xda;" horiz-adv-x="1478"
             d="M113 412v665h237v-663q0 -135 47 -190.5t152 -55.5q106 0 150 57.5t44 188.5v663h238v-665q0 -223 -103.5 -332t-330.5 -109q-217 0 -322 101q-113 106 -112 340zM653 1612l190 301h330l-309 -301h-211z"/>
      <glyph glyph-name="Ucircumflex" unicode="&#xdb;" horiz-adv-x="1478"
             d="M113 412v665h237v-663q0 -135 47 -190.5t152 -55.5q106 0 150 57.5t44 188.5v663h238v-665q0 -223 -103.5 -332t-330.5 -109q-217 0 -322 101q-113 106 -112 340zM463 1612l238 301h262l238 -301h-240l-129 166l-131 -166h-238z"/>
      <glyph glyph-name="Udieresis" unicode="&#xdc;" horiz-adv-x="1079"
             d="M113 412v665h237v-663q0 -135 47 -190.5t152 -55.5q106 0 150 57.5t44 188.5v663h238v-665q0 -223 -103.5 -332t-330.5 -109q-217 0 -322 101q-113 106 -112 340zM356 1190v174h195v-174h-195zM651 1190v174h199v-174h-199z"/>
      <glyph glyph-name="germandbls" unicode="&#xdf;" horiz-adv-x="913"
             d="M96 0v756q0 170 70 248q82 90 283 90q152 0 247 -68q109 -76 109 -215q0 -129 -111 -195q170 -72 170 -272q0 -137 -67 -231q-96 -131 -308 -131q-53 0 -77 8v172q12 -2 47 -2q188 0 188 180q0 82 -41 121t-149 53q-10 0 -33 4v148q102 14 111 18q45 23 45 107
q0 131 -136 131q-90 0 -116 -58q-18 -37 -19 -135v-729h-213z"/>
      <glyph glyph-name="agrave" unicode="&#xe0;"
             d="M63 516q0 285 132 447q127 156 342 155q215 0 309 -190v162h291v-1090h-289v152q-113 -186 -332 -187q-186 0 -315 146q-138 155 -138 405zM295 1540h325l193 -301h-211zM367 541q0 -326 235 -326q106 0 170 74q72 82 72 239q0 158 -63.5 245t-178.5 87
q-109 0 -172 -81.5t-63 -237.5z"/>
      <glyph glyph-name="aacute" unicode="&#xe1;"
             d="M63 516q0 285 132 447q127 156 342 155q215 0 309 -190v162h291v-1090h-289v152q-113 -186 -332 -187q-186 0 -315 146q-138 155 -138 405zM367 541q0 -326 235 -326q106 0 170 74q72 82 72 239q0 158 -63.5 245t-178.5 87q-109 0 -172 -81.5t-63 -237.5zM463 1239
l190 301h330l-309 -301h-211z"/>
      <glyph glyph-name="acircumflex" unicode="&#xe2;"
             d="M63 516q0 285 132 447q127 156 342 155q215 0 309 -190v162h291v-1090h-289v152q-113 -186 -332 -187q-186 0 -315 146q-138 155 -138 405zM270 1239l238 301h262l238 -301h-240l-129 166l-131 -166h-238zM367 541q0 -326 235 -326q106 0 170 74q72 82 72 239
q0 158 -63.5 245t-178.5 87q-109 0 -172 -81.5t-63 -237.5z"/>
      <glyph glyph-name="atilde" unicode="&#xe3;"
             d="M63 516q0 285 132 447q127 156 342 155q215 0 309 -190v162h291v-1090h-289v152q-113 -186 -332 -187q-186 0 -315 146q-138 155 -138 405zM258 1253q25 117 68 172q63 80 184 80q49 0 141 -35q109 -41 133 -40q43 0 64 20q12 14 31 66h137q-43 -248 -232 -248
q-72 0 -196 47q-59 23 -101 22q-76 0 -94 -84h-135zM367 541q0 -326 235 -326q106 0 170 74q72 82 72 239q0 158 -63.5 245t-178.5 87q-109 0 -172 -81.5t-63 -237.5z"/>
      <glyph glyph-name="adieresis" unicode="&#xe4;"
             d="M63 516q0 285 132 447q127 156 342 155q215 0 309 -190v162h291v-1090h-289v152q-113 -186 -332 -187q-186 0 -315 146q-138 155 -138 405zM297 1257v240h266v-240h-266zM367 541q0 -326 235 -326q106 0 170 74q72 82 72 239q0 158 -63.5 245t-178.5 87
q-109 0 -172 -81.5t-63 -237.5zM702 1257v240h271v-240h-271z"/>
      <glyph glyph-name="aring" unicode="&#xe5;"
             d="M63 516q0 285 132 447q127 156 342 155q215 0 309 -190v162h291v-1090h-289v152q-113 -186 -332 -187q-186 0 -315 146q-138 155 -138 405zM367 541q0 -326 235 -326q106 0 170 74q72 82 72 239q0 158 -63.5 245t-178.5 87q-109 0 -172 -81.5t-63 -237.5zM414 1446
q0 84 55 147q63 72 164 72q82 0 147 -55q72 -61 72 -164q0 -84 -53 -146q-61 -74 -166 -73q-84 0 -146 51q-73 62 -73 168zM516 1446q0 -53 36 -85t81 -32q47 0 82 33t35 84q0 63 -43 96q-33 23 -74 23q-39 0 -74 -25q-43 -33 -43 -94z"/>
      <glyph glyph-name="ae" unicode="&#xe6;" horiz-adv-x="1820"
             d="M53 297q0 154 85 230.5t288 109.5l164 27q129 20 151 34v68q0 117 -190 117q-162 0 -170 -150h-289q6 182 130 282.5t360 100.5q193 0 342 -112q147 113 319 112q518 0 510 -643h-741q0 -139 41 -203q49 -74 170 -73q172 0 219 131h299q-16 -125 -117 -226
q-141 -139 -389 -139q-260 0 -381 178q-143 -178 -416 -178q-195 0 -297 103q-88 88 -88 231zM350 301q0 -125 148 -125q242 0 241 236v96q-43 -14 -110 -29l-107 -22q-94 -20 -125 -41q-47 -35 -47 -115zM1016 662h430q-25 223 -213 223q-129 0 -178 -78q-33 -47 -39 -145z
"/>
      <glyph glyph-name="ccedilla" unicode="&#xe7;" horiz-adv-x="1150"
             d="M74 524q0 244 100 396q131 199 416 198q195 0 307 -67q162 -100 188 -355h-303q-23 172 -184 172q-217 0 -217 -336q0 -324 215 -323q174 0 184 188h303q-8 -145 -108 -270q-131 -162 -357 -166l-59 -92q53 12 76 12q180 0 180 -153q0 -84 -67 -140q-76 -61 -205 -61
q-70 0 -219 55l41 86q115 -35 157 -35q111 0 111 80q0 76 -90 76q-39 0 -86 -16l-43 37l100 151q-172 0 -293 125q-147 153 -147 438z"/>
      <glyph glyph-name="egrave" unicode="&#xe8;" horiz-adv-x="1138"
             d="M45 537q0 270 145 430q141 154 371 153q539 0 520 -655h-741q2 -119 63.5 -190.5t178.5 -71.5q147 0 192 112h305q-14 -150 -141 -247q-139 -104 -358 -105q-219 0 -363 127q-172 154 -172 447zM299 1540h325l193 -301h-211zM348 657h428q-10 221 -213 222
q-184 -1 -215 -222z"/>
      <glyph glyph-name="eacute" unicode="&#xe9;" horiz-adv-x="1138"
             d="M45 537q0 270 145 430q141 154 371 153q539 0 520 -655h-741q2 -119 63.5 -190.5t178.5 -71.5q147 0 192 112h305q-14 -150 -141 -247q-139 -104 -358 -105q-219 0 -363 127q-172 154 -172 447zM348 657h428q-10 221 -213 222q-184 -1 -215 -222zM465 1239l190 301h330
l-309 -301h-211z"/>
      <glyph glyph-name="ecircumflex" unicode="&#xea;" horiz-adv-x="1138"
             d="M45 537q0 270 145 430q141 154 371 153q539 0 520 -655h-741q2 -119 63.5 -190.5t178.5 -71.5q147 0 192 112h305q-14 -150 -141 -247q-139 -104 -358 -105q-219 0 -363 127q-172 154 -172 447zM274 1239l238 301h262l238 -301h-240l-129 166l-131 -166h-238zM348 657
h428q-10 221 -213 222q-184 -1 -215 -222z"/>
      <glyph glyph-name="edieresis" unicode="&#xeb;" horiz-adv-x="1138"
             d="M45 537q0 270 145 430q141 154 371 153q539 0 520 -655h-741q2 -119 63.5 -190.5t178.5 -71.5q147 0 192 112h305q-14 -150 -141 -247q-139 -104 -358 -105q-219 0 -363 127q-172 154 -172 447zM299 1257v240h266v-240h-266zM348 657h428q-10 221 -213 222
q-184 -1 -215 -222zM704 1257v240h271v-240h-271z"/>
      <glyph glyph-name="igrave" unicode="&#xec;" horiz-adv-x="569"
             d="M-39 1540h325l193 -301h-211zM131 0v1092h301v-1092h-301z"/>
      <glyph glyph-name="iacute" unicode="&#xed;" horiz-adv-x="569"
             d="M96 1239l190 301h330l-309 -301h-211zM131 0v1092h301v-1092h-301z"/>
      <glyph glyph-name="icircumflex" unicode="&#xee;" horiz-adv-x="569"
             d="M-82 1239l238 301h262l238 -301h-240l-129 166l-131 -166h-238zM131 0v1092h301v-1092h-301z"/>
      <glyph glyph-name="idieresis" unicode="&#xef;" horiz-adv-x="569"
             d="M-53 1257v240h266v-240h-266zM131 0v1092h301v-1092h-301zM352 1257v240h271v-240h-271z"/>
      <glyph glyph-name="ntilde" unicode="&#xf1;"
             d="M135 0v1090h285v-158q123 186 325 186q387 0 388 -381v-737h-304v662q0 211 -182 210q-217 0 -217 -286v-586h-295zM258 1253q25 117 68 172q63 80 184 80q49 0 141 -35q109 -41 133 -40q43 0 64 20q12 14 31 66h137q-43 -248 -232 -248q-72 0 -196 47q-59 23 -101 22
q-76 0 -94 -84h-135z"/>
      <glyph glyph-name="ograve" unicode="&#xf2;"
             d="M66 545q0 260 148 420.5t415 160.5q268 0 415.5 -156.5t147.5 -428.5q0 -260 -141 -416q-150 -164 -420 -164q-262 0 -413.5 160t-151.5 424zM295 1540h325l193 -301h-211zM375 545q0 -336 254 -336q119 0 186.5 87t67.5 245q0 166 -69 252t-185 86q-254 0 -254 -334z
"/>
      <glyph glyph-name="oacute" unicode="&#xf3;"
             d="M66 545q0 260 148 420.5t415 160.5q268 0 415.5 -156.5t147.5 -428.5q0 -260 -141 -416q-150 -164 -420 -164q-262 0 -413.5 160t-151.5 424zM375 545q0 -336 254 -336q119 0 186.5 87t67.5 245q0 166 -69 252t-185 86q-254 0 -254 -334zM463 1239l190 301h330l-309 -301
h-211z"/>
      <glyph glyph-name="ocircumflex" unicode="&#xf4;"
             d="M66 545q0 260 148 420.5t415 160.5q268 0 415.5 -156.5t147.5 -428.5q0 -260 -141 -416q-150 -164 -420 -164q-262 0 -413.5 160t-151.5 424zM270 1239l238 301h262l238 -301h-240l-129 166l-131 -166h-238zM375 545q0 -336 254 -336q119 0 186.5 87t67.5 245
q0 166 -69 252t-185 86q-254 0 -254 -334z"/>
      <glyph glyph-name="otilde" unicode="&#xf5;"
             d="M66 545q0 260 148 420.5t415 160.5q268 0 415.5 -156.5t147.5 -428.5q0 -260 -141 -416q-150 -164 -420 -164q-262 0 -413.5 160t-151.5 424zM260 1253q25 117 68 172q63 80 184 80q49 0 141 -35q109 -41 133 -40q43 0 64 20q12 14 31 66h137q-43 -248 -232 -248
q-72 0 -196 47q-59 23 -101 22q-76 0 -94 -84h-135zM375 545q0 -336 254 -336q119 0 186.5 87t67.5 245q0 166 -69 252t-185 86q-254 0 -254 -334z"/>
      <glyph glyph-name="odieresis" unicode="&#xf6;"
             d="M66 545q0 260 148 420.5t415 160.5q268 0 415.5 -156.5t147.5 -428.5q0 -260 -141 -416q-150 -164 -420 -164q-262 0 -413.5 160t-151.5 424zM297 1257v240h266v-240h-266zM375 545q0 -336 254 -336q119 0 186.5 87t67.5 245q0 166 -69 252t-185 86q-254 0 -254 -334z
M702 1257v240h271v-240h-271z"/>
      <glyph glyph-name="oslash" unicode="&#xf8;" horiz-adv-x="1251"
             d="M39 0l141 143q-121 162 -121 402q0 248 144 411q152 170 399 170q252 0 397 -120l138 145l73 -70l-143 -147q119 -166 119 -381q0 -270 -154.5 -432t-421.5 -162q-211 0 -360 121l-137 -143zM369 553q0 -119 30 -178l406 430q-63 74 -187 74q-115 0 -182 -85t-67 -241z
M451 285q82 -78 182 -78q119 0 184 96q59 90 60 236q0 90 -21 174z"/>
      <glyph glyph-name="ugrave" unicode="&#xf9;"
             d="M125 391v701h303v-654q0 -119 39 -169t133 -50q219 0 219 285v588h303v-1092h-291l3 154q-125 -178 -334 -179q-375 0 -375 416zM297 1540h325l193 -301h-211z"/>
      <glyph glyph-name="uacute" unicode="&#xfa;"
             d="M125 391v701h303v-654q0 -119 39 -169t133 -50q219 0 219 285v588h303v-1092h-291l3 154q-125 -178 -334 -179q-375 0 -375 416zM465 1239l190 301h330l-309 -301h-211z"/>
      <glyph glyph-name="ucircumflex" unicode="&#xfb;"
             d="M125 391v701h303v-654q0 -119 39 -169t133 -50q219 0 219 285v588h303v-1092h-291l3 154q-125 -178 -334 -179q-375 0 -375 416zM272 1239l238 301h262l238 -301h-240l-129 166l-131 -166h-238z"/>
      <glyph glyph-name="udieresis" unicode="&#xfc;"
             d="M125 391v701h303v-654q0 -119 39 -169t133 -50q219 0 219 285v588h303v-1092h-291l3 154q-125 -178 -334 -179q-375 0 -375 416zM299 1257v240h266v-240h-266zM704 1257v240h271v-240h-271z"/>
      <glyph glyph-name="ydieresis" unicode="&#xff;" horiz-adv-x="1150"
             d="M20 1092h328l234 -797l219 797h313l-399 -1147q-88 -252 -150 -316q-70 -70 -250 -69h-77q-41 2 -56 2v235q27 -4 68 -4q125 0 156 94l18 58zM250 1257v240h266v-240h-266zM655 1257v240h271v-240h-271z"/>
      <glyph glyph-name="OE" unicode="&#x152;" horiz-adv-x="1495"
             d="M55 537q0 211 84 360q113 203 350 203q135 0 240 -94v65h707v-192h-498v-226h463v-186h-463v-270h496v-197h-705v70q-61 -96 -233 -99q-229 -2 -346 191q-95 154 -95 375zM283 526q0 -141 49 -237q63 -129 196 -129q78 0 131.5 41t53.5 84v487q0 129 -185 129
q-111 0 -176 -94q-69 -101 -69 -281z"/>
      <glyph glyph-name="oe" unicode="&#x153;" horiz-adv-x="1990"
             d="M66 545q0 260 148 420.5t415 160.5q270 0 409 -161q137 156 363 155q539 0 520 -655h-741q2 -119 63.5 -190.5t177.5 -71.5q147 0 193 112h305q-14 -150 -141 -247q-139 -104 -359 -105q-242 0 -383 158q-143 -160 -405 -160t-413.5 160t-151.5 424zM375 545
q0 -336 254 -336q119 0 186.5 87t67.5 245q0 166 -69 252t-185 86q-254 0 -254 -334zM1188 657h428q-10 221 -213 222q-184 -1 -215 -222z"/>
      <glyph glyph-name="Ydieresis" unicode="&#x178;" horiz-adv-x="997"
             d="M25 1077h274l215 -465l205 465h264l-354 -676v-401h-236v401zM319 1190v174h195v-174h-195zM616 1190v174h197v-174h-197z"/>
      <glyph glyph-name="circumflex" unicode="&#x2c6;" horiz-adv-x="681"
             d="M-72 1239l238 301h262l238 -301h-240l-129 166l-131 -166h-238z"/>
      <glyph glyph-name="tilde" unicode="&#x2dc;" horiz-adv-x="681"
             d="M-84 1253q25 117 68 172q63 80 184 80q49 0 141 -35q109 -41 133 -40q43 0 64 20q12 14 31 66h137q-43 -248 -232 -248q-72 0 -196 47q-59 23 -101 22q-76 0 -94 -84h-135z"/>
      <glyph glyph-name="uni2000" unicode="&#x2000;" horiz-adv-x="976"
      />
      <glyph glyph-name="uni2001" unicode="&#x2001;" horiz-adv-x="1952"
      />
      <glyph glyph-name="uni2002" unicode="&#x2002;" horiz-adv-x="976"
      />
      <glyph glyph-name="uni2003" unicode="&#x2003;" horiz-adv-x="1952"
      />
      <glyph glyph-name="uni2004" unicode="&#x2004;" horiz-adv-x="650"
      />
      <glyph glyph-name="uni2005" unicode="&#x2005;" horiz-adv-x="488"
      />
      <glyph glyph-name="uni2006" unicode="&#x2006;" horiz-adv-x="325"
      />
      <glyph glyph-name="uni2007" unicode="&#x2007;" horiz-adv-x="325"
      />
      <glyph glyph-name="uni2008" unicode="&#x2008;" horiz-adv-x="244"
      />
      <glyph glyph-name="uni2009" unicode="&#x2009;" horiz-adv-x="390"
      />
      <glyph glyph-name="uni200A" unicode="&#x200a;" horiz-adv-x="108"
      />
      <glyph glyph-name="uni2010" unicode="&#x2010;" horiz-adv-x="681"
             d="M43 432v279h582v-279h-582z"/>
      <glyph glyph-name="uni2011" unicode="&#x2011;" horiz-adv-x="681"
             d="M43 432v279h582v-279h-582z"/>
      <glyph glyph-name="figuredash" unicode="&#x2012;" horiz-adv-x="681"
             d="M43 432v279h582v-279h-582z"/>
      <glyph glyph-name="endash" unicode="&#x2013;" horiz-adv-x="1138"
             d="M-4 463v223h1147v-223h-1147z"/>
      <glyph glyph-name="emdash" unicode="&#x2014;" horiz-adv-x="2048"
             d="M242 463v223h1564v-223h-1564z"/>
      <glyph glyph-name="quoteleft" unicode="&#x2018;" horiz-adv-x="581"
             d="M137 922v213q0 287 287 354v-105q-166 -51 -158 -192h164v-270h-293z"/>
      <glyph glyph-name="quoteright" unicode="&#x2019;" horiz-adv-x="581"
             d="M127 1202v266h295v-213q0 -293 -289 -352v107q166 53 158 192h-164z"/>
      <glyph glyph-name="quotesinglbase" unicode="&#x201a;" horiz-adv-x="581"
             d="M143 0v295h299v-240q0 -160 -51 -239q-63 -96 -241 -158v113q70 20 96 47q55 55 59 182h-162z"/>
      <glyph glyph-name="quotedblleft" unicode="&#x201c;" horiz-adv-x="1058"
             d="M145 922v213q0 295 287 354v-105q-168 -55 -158 -192h164v-270h-293zM633 922v213q0 289 287 354v-105q-168 -55 -156 -192h160v-270h-291z"/>
      <glyph glyph-name="quotedblright" unicode="&#x201d;" horiz-adv-x="1058"
             d="M160 1202v266h291v-213q0 -297 -287 -352v107q164 55 155 192h-159zM643 1202v266h293v-213q0 -299 -285 -352v107q154 45 154 192h-162z"/>
      <glyph glyph-name="quotedblbase" unicode="&#x201e;" horiz-adv-x="1058"
             d="M152 0v295h299v-240q0 -193 -78 -280q-57 -63 -213 -117v113q68 20 96 47q53 55 59 182h-163zM612 0v295h299v-240q0 -164 -45 -243q-66 -113 -250 -154v113q68 18 101 49q51 55 57 180h-162z"/>
      <glyph glyph-name="bullet" unicode="&#x2022;" horiz-adv-x="716"
             d="M289 733q0 84 47 146q59 76 174 75q86 0 147 -51q74 -61 74 -170q0 -94 -63.5 -157.5t-157.5 -63.5q-88 0 -152 55q-69 64 -69 166z"/>
      <glyph glyph-name="ellipsis" unicode="&#x2026;" horiz-adv-x="2048"
             d="M184 0v307h318v-307h-318zM868 0v307h314v-307h-314zM1550 0v307h314v-307h-314z"/>
      <glyph glyph-name="uni202F" unicode="&#x202f;" horiz-adv-x="390"
      />
      <glyph glyph-name="guilsinglleft" unicode="&#x2039;" horiz-adv-x="681"
             d="M168 442v242l346 299v-244l-205 -176l205 -174v-244z"/>
      <glyph glyph-name="guilsinglright" unicode="&#x203a;" horiz-adv-x="681"
             d="M170 145v244l203 174l-203 176v244l344 -299v-242z"/>
      <glyph glyph-name="uni205F" unicode="&#x205f;" horiz-adv-x="488"
      />
      <glyph glyph-name="trademark" unicode="&#x2122;" horiz-adv-x="1495"
             d="M145 942v135h482v-135h-160v-410h-164v410h-158zM670 532v545h233l94 -305l93 305h233v-545h-147v390l-115 -390h-127l-115 390v-390h-149z"/>
      <glyph glyph-name="uni25FC" unicode="&#x25fc;" horiz-adv-x="1085"
             d="M0 0v1085h1085v-1085h-1085z"/>
    </font>
</defs>
</svg>
